<svg xmlns="http://www.w3.org/2000/svg" xmlns:xlink="http://www.w3.org/1999/xlink" width="100" zoomAndPan="magnify" viewBox="0 0 75 74.999997" height="100" preserveAspectRatio="xMidYMid meet" version="1.0"><defs><clipPath id="e0265dceb2"><path d="M 0 12.132812 L 75 12.132812 L 75 66.132812 L 0 66.132812 Z M 0 12.132812 " clip-rule="nonzero"/></clipPath></defs><path fill="#b2cc5a" d="M 57 28.855469 L 57.332031 29.121094 L 56.953125 29.28125 L 56.9375 29.28125 L 56.621094 28.933594 L 56.78125 28.695312 Z M 72.96875 40.074219 L 72.921875 40.3125 C 72.902344 40.417969 72.863281 40.515625 72.8125 40.613281 C 72.769531 40.695312 72.71875 40.769531 72.652344 40.832031 L 72.621094 40.878906 L 72.558594 40.878906 C 72.523438 40.898438 72.5 40.925781 72.480469 40.960938 L 72.480469 41.007812 L 72.449219 41.054688 C 72.375 41.109375 72.316406 41.175781 72.273438 41.261719 L 72.273438 41.542969 L 72.117188 41.6875 C 71.925781 41.859375 71.894531 41.90625 71.925781 41.988281 C 71.957031 42.066406 72.132812 42.144531 72.242188 42.207031 L 72.589844 42.414062 L 72.703125 42.507812 L 72.667969 42.667969 C 72.644531 42.796875 72.597656 42.917969 72.527344 43.03125 C 72.425781 43.175781 72.304688 43.300781 72.164062 43.410156 C 72.070312 43.488281 71.941406 43.597656 71.925781 43.660156 C 71.886719 43.902344 71.945312 44.121094 72.101562 44.308594 L 72.226562 44.484375 L 72.023438 44.671875 C 71.921875 44.746094 71.84375 44.835938 71.785156 44.941406 C 71.757812 45.140625 71.800781 45.328125 71.910156 45.496094 L 72.003906 45.652344 L 71.878906 45.78125 L 71.753906 45.90625 C 71.65625 46 71.53125 46.113281 71.53125 46.175781 L 71.53125 46.539062 L 71.324219 46.585938 C 71.199219 46.617188 71.042969 46.648438 70.992188 46.710938 C 70.886719 46.847656 70.835938 47 70.835938 47.171875 L 70.835938 47.3125 L 70.675781 47.390625 C 70.441406 47.519531 70.394531 47.566406 70.410156 47.644531 C 70.425781 47.722656 70.410156 47.675781 70.457031 47.722656 L 70.675781 48.023438 L 70.296875 48.101562 C 70.226562 48.109375 70.167969 48.140625 70.125 48.199219 C 70.089844 48.269531 70.089844 48.34375 70.125 48.417969 C 70.203125 48.671875 70.0625 48.894531 69.949219 49.066406 C 69.839844 49.242188 69.777344 49.351562 69.839844 49.414062 C 69.855469 49.4375 69.875 49.453125 69.902344 49.460938 L 70.710938 49.808594 L 69.839844 49.921875 C 69.722656 49.929688 69.613281 49.960938 69.507812 50.015625 C 69.441406 50.089844 69.390625 50.175781 69.351562 50.269531 L 69.300781 50.394531 L 69.175781 50.394531 C 69.050781 50.425781 69.035156 50.472656 69.019531 50.503906 C 69.039062 50.640625 69.085938 50.765625 69.160156 50.882812 L 69.429688 51.484375 L 68.859375 51.261719 L 68.636719 51.199219 L 68.542969 51.199219 C 68.257812 51.199219 68.117188 51.277344 68.070312 51.34375 C 68.042969 51.417969 68.046875 51.492188 68.085938 51.5625 C 68.132812 51.691406 68.132812 51.816406 68.085938 51.941406 L 68.003906 52.132812 L 67.707031 52.132812 C 67.539062 52.113281 67.386719 52.152344 67.246094 52.242188 C 67.21875 52.324219 67.226562 52.402344 67.261719 52.480469 C 67.277344 52.503906 67.28125 52.53125 67.277344 52.558594 L 67.339844 52.875 L 67.027344 52.84375 L 66.960938 52.84375 C 66.835938 52.84375 66.757812 52.859375 66.757812 53.097656 C 66.757812 53.332031 66.550781 53.539062 66.378906 53.664062 C 66.203125 53.792969 66.15625 53.855469 66.15625 53.933594 L 66.15625 54.109375 L 65.996094 54.15625 L 65.824219 54.21875 C 65.570312 54.296875 65.523438 54.328125 65.507812 54.425781 C 65.523438 54.488281 65.550781 54.542969 65.585938 54.597656 L 65.902344 55.070312 L 65.351562 54.960938 L 65.191406 54.960938 C 64.921875 54.960938 64.703125 55.039062 64.636719 55.136719 C 64.617188 55.21875 64.628906 55.296875 64.667969 55.371094 L 64.71875 55.5 L 64.78125 55.816406 L 64.464844 55.78125 L 64.386719 55.78125 C 64.257812 55.78125 64.242188 55.816406 64.210938 55.863281 C 64.199219 55.925781 64.199219 55.988281 64.210938 56.050781 L 64.289062 56.511719 L 63.863281 56.304688 C 63.746094 56.234375 63.621094 56.199219 63.484375 56.195312 C 63.421875 56.195312 63.324219 56.195312 63.308594 56.429688 C 63.292969 56.667969 63.058594 56.84375 62.867188 56.953125 L 62.710938 57.078125 L 62.644531 57.125 L 62.265625 57.125 C 62.03125 57.125 61.996094 57.175781 61.964844 57.238281 C 61.976562 57.375 62.007812 57.503906 62.0625 57.632812 L 62.109375 57.789062 L 62.171875 57.964844 L 62.015625 58.058594 C 61.898438 58.148438 61.773438 58.210938 61.632812 58.25 C 61.53125 58.28125 61.425781 58.296875 61.316406 58.296875 L 60.90625 58.296875 C 60.796875 58.296875 60.75 58.3125 60.734375 58.328125 C 60.558594 58.453125 60.453125 58.621094 60.417969 58.832031 L 60.371094 58.992188 L 60.226562 59.023438 L 59.941406 59.054688 C 59.851562 59.0625 59.761719 59.078125 59.671875 59.101562 L 59.578125 59.101562 L 59.5 59.054688 C 59.425781 59.015625 59.347656 58.988281 59.261719 58.976562 L 59.011719 58.945312 C 58.886719 58.929688 58.773438 58.960938 58.679688 59.039062 C 58.640625 59.117188 58.636719 59.195312 58.660156 59.277344 C 58.675781 59.292969 58.679688 59.316406 58.679688 59.339844 L 58.710938 59.703125 L 58.363281 59.589844 L 58.125 59.542969 C 58.085938 59.542969 58.050781 59.558594 58.03125 59.589844 C 57.980469 59.65625 57.996094 59.84375 57.996094 59.921875 L 57.996094 60.128906 L 57.792969 60.160156 L 57.683594 60.160156 C 57.546875 60.148438 57.414062 60.125 57.285156 60.082031 L 57.019531 60.019531 C 56.96875 60.019531 56.9375 60.019531 56.90625 60.066406 C 56.90625 60.078125 56.902344 60.089844 56.890625 60.097656 L 56.84375 60.238281 L 56.667969 60.238281 C 56.59375 60.25 56.527344 60.289062 56.480469 60.351562 C 56.347656 60.464844 56.195312 60.519531 56.023438 60.507812 L 55.65625 60.507812 C 55.484375 60.507812 55.46875 60.554688 55.453125 60.585938 C 55.4375 60.617188 55.4375 60.601562 55.4375 60.652344 L 55.4375 60.949219 L 55.152344 60.886719 L 54.914062 60.824219 C 54.824219 60.792969 54.726562 60.769531 54.628906 60.761719 C 54.585938 60.761719 54.550781 60.777344 54.519531 60.808594 C 54.496094 60.875 54.488281 60.945312 54.488281 61.015625 L 54.488281 61.488281 L 54.109375 61.203125 C 54.023438 61.132812 53.929688 61.085938 53.824219 61.0625 L 53.761719 61.0625 C 53.675781 61.175781 53.621094 61.300781 53.585938 61.441406 C 53.566406 61.539062 53.542969 61.632812 53.507812 61.726562 L 53.332031 62.167969 L 53.066406 61.757812 C 53.011719 61.660156 52.9375 61.578125 52.84375 61.519531 C 52.699219 61.40625 52.535156 61.335938 52.355469 61.3125 C 52.304688 61.3125 52.210938 61.3125 52.179688 61.535156 L 52.179688 61.566406 L 52.101562 61.882812 L 51.816406 61.710938 L 51.691406 61.660156 C 51.625 61.660156 51.546875 61.742188 51.5 61.820312 C 51.453125 61.898438 51.089844 62.074219 50.882812 62.105469 C 50.679688 62.136719 50.550781 62.152344 50.519531 62.246094 C 50.519531 62.273438 50.527344 62.300781 50.535156 62.324219 L 50.566406 62.46875 L 50.472656 62.5625 C 50.359375 62.695312 50.226562 62.804688 50.078125 62.894531 C 49.992188 62.9375 49.902344 62.96875 49.808594 62.988281 L 49.683594 63.019531 L 49.585938 62.941406 C 49.558594 62.902344 49.519531 62.871094 49.476562 62.847656 L 49.269531 62.6875 C 49.121094 62.542969 48.949219 62.4375 48.75 62.375 L 48.464844 62.339844 C 48.320312 62.339844 48.195312 62.375 48.164062 62.4375 L 48.054688 62.5625 L 47.785156 62.46875 C 47.695312 62.421875 47.601562 62.394531 47.5 62.390625 C 47.464844 62.382812 47.429688 62.394531 47.40625 62.421875 C 47.363281 62.503906 47.34375 62.59375 47.359375 62.6875 L 47.308594 63.335938 L 46.914062 62.832031 C 46.828125 62.707031 46.71875 62.605469 46.582031 62.53125 C 46.4375 62.457031 46.285156 62.414062 46.125 62.40625 C 46.074219 62.398438 46.027344 62.410156 45.980469 62.4375 L 45.871094 62.515625 L 45.746094 62.453125 L 45.664062 62.421875 C 45.585938 62.421875 45.523438 62.5 45.476562 62.5625 C 45.429688 62.625 45.035156 62.785156 44.8125 62.785156 C 44.589844 62.785156 44.496094 62.816406 44.464844 62.894531 L 44.386719 63.195312 L 44.085938 63.050781 C 43.921875 62.976562 43.753906 62.925781 43.578125 62.894531 L 43.4375 62.894531 L 43.375 62.925781 L 43.292969 62.925781 C 43.183594 62.957031 42.914062 63.019531 42.914062 63.179688 L 42.914062 63.304688 L 42.804688 63.382812 L 42.628906 63.496094 L 42.328125 63.589844 L 42.234375 63.589844 L 42.15625 63.527344 C 42.0625 63.464844 41.960938 63.414062 41.855469 63.367188 L 41.632812 63.242188 C 41.457031 63.128906 41.261719 63.066406 41.050781 63.050781 L 40.75 63.085938 L 40.636719 63.117188 L 40.558594 63.050781 C 40.480469 62.992188 40.390625 62.949219 40.289062 62.925781 L 40.210938 62.925781 C 40.140625 63.050781 40.09375 63.179688 40.070312 63.320312 C 40.054688 63.402344 40.035156 63.480469 40.007812 63.558594 L 39.894531 63.90625 L 39.609375 63.667969 L 39.53125 63.605469 L 39.34375 63.449219 C 39.136719 63.289062 39.011719 63.179688 38.820312 63.148438 C 38.722656 63.121094 38.621094 63.113281 38.519531 63.117188 C 38.4375 63.109375 38.359375 63.117188 38.28125 63.148438 L 38.171875 63.195312 L 38.0625 63.117188 C 37.917969 63.011719 37.761719 62.949219 37.585938 62.925781 C 37.539062 62.925781 37.445312 62.925781 37.398438 63.164062 C 37.394531 63.199219 37.382812 63.230469 37.367188 63.257812 L 37.207031 63.621094 L 36.953125 63.320312 C 36.871094 63.191406 36.761719 63.089844 36.621094 63.019531 C 36.488281 62.960938 36.34375 62.921875 36.195312 62.910156 L 36.117188 62.910156 L 36.054688 62.847656 C 36.023438 62.816406 35.984375 62.800781 35.941406 62.800781 C 35.863281 62.808594 35.800781 62.84375 35.753906 62.910156 C 35.628906 63.011719 35.488281 63.058594 35.324219 63.050781 L 35.074219 63.019531 L 34.773438 63.019531 L 34.695312 62.925781 C 34.613281 62.816406 34.566406 62.800781 34.535156 62.800781 L 34.488281 62.800781 C 34.457031 62.816406 34.410156 62.847656 34.296875 62.988281 L 34.21875 63.117188 L 34.0625 63.085938 L 33.808594 63.085938 C 33.59375 63.058594 33.40625 62.972656 33.253906 62.816406 C 33.160156 62.738281 33.050781 62.640625 32.96875 62.640625 L 32.90625 62.640625 L 32.875 62.671875 L 32.796875 62.785156 L 32.652344 62.753906 L 32.621094 62.753906 L 32.449219 62.800781 L 32.257812 62.832031 C 32.089844 62.8125 31.929688 62.757812 31.785156 62.671875 C 31.695312 62.609375 31.59375 62.566406 31.484375 62.546875 C 31.453125 62.542969 31.425781 62.554688 31.40625 62.578125 L 31.40625 62.609375 L 31.359375 62.671875 L 31.277344 62.703125 L 31.246094 62.703125 C 31.1875 62.730469 31.125 62.742188 31.058594 62.738281 C 30.882812 62.722656 30.71875 62.667969 30.566406 62.578125 C 30.480469 62.519531 30.386719 62.476562 30.28125 62.453125 C 30.25 62.449219 30.226562 62.460938 30.203125 62.484375 C 30.140625 62.53125 30.109375 62.738281 30.09375 62.847656 L 30.03125 63.179688 L 29.730469 63.019531 C 29.628906 62.957031 29.523438 62.902344 29.414062 62.863281 L 29.175781 62.769531 C 29.054688 62.710938 28.929688 62.667969 28.796875 62.640625 L 28.703125 62.609375 L 28.636719 62.53125 C 28.542969 62.375 28.480469 62.308594 28.433594 62.308594 L 28.386719 62.308594 C 28.320312 62.308594 28.195312 62.484375 28.101562 62.59375 C 27.992188 62.742188 27.863281 62.875 27.722656 62.988281 L 27.546875 63.117188 L 27.390625 62.957031 L 27.214844 62.769531 L 27.027344 62.59375 C 26.835938 62.421875 26.710938 62.292969 26.519531 62.246094 C 26.402344 62.210938 26.28125 62.191406 26.15625 62.183594 L 26 62.214844 L 25.902344 62.214844 L 25.808594 62.167969 L 25.699219 62.105469 C 25.605469 62.035156 25.507812 61.988281 25.398438 61.960938 L 25.351562 61.960938 L 25.144531 62.074219 L 25.019531 61.882812 C 24.984375 61.835938 24.90625 61.710938 24.8125 61.710938 C 24.734375 61.722656 24.671875 61.757812 24.621094 61.820312 C 24.503906 61.917969 24.363281 61.957031 24.210938 61.945312 L 24.007812 61.945312 L 23.941406 61.804688 C 23.910156 61.726562 23.832031 61.582031 23.738281 61.582031 C 23.664062 61.59375 23.601562 61.625 23.546875 61.679688 C 23.453125 61.742188 23.347656 61.773438 23.230469 61.773438 C 23.105469 61.769531 22.984375 61.746094 22.867188 61.710938 L 22.628906 61.644531 L 22.503906 61.644531 L 22.441406 61.550781 C 22.378906 61.457031 22.332031 61.457031 22.296875 61.457031 L 22.28125 61.457031 C 22.234375 61.457031 22.15625 61.519531 22.0625 61.628906 L 21.949219 61.742188 L 21.808594 61.695312 L 21.585938 61.695312 C 21.351562 61.695312 21.175781 61.519531 21.019531 61.378906 C 20.859375 61.234375 20.828125 61.171875 20.75 61.171875 L 20.703125 61.171875 C 20.671875 61.1875 20.621094 61.21875 20.542969 61.378906 L 20.449219 61.566406 L 20.242188 61.488281 C 20.085938 61.417969 19.957031 61.320312 19.847656 61.1875 C 19.769531 61.078125 19.65625 60.964844 19.578125 60.964844 L 19.53125 60.964844 C 19.492188 60.996094 19.460938 61.035156 19.4375 61.078125 L 19.183594 61.441406 L 19.011719 61.03125 C 18.929688 60.839844 18.835938 60.730469 18.742188 60.730469 C 18.671875 60.742188 18.609375 60.765625 18.550781 60.808594 C 18.511719 60.847656 18.464844 60.875 18.410156 60.886719 L 18.15625 60.984375 L 18.078125 60.886719 C 18.03125 60.667969 17.933594 60.667969 17.902344 60.667969 L 17.746094 60.699219 C 17.691406 60.722656 17.632812 60.734375 17.570312 60.730469 C 17.394531 60.71875 17.230469 60.667969 17.082031 60.570312 C 16.996094 60.511719 16.898438 60.46875 16.796875 60.445312 C 16.765625 60.441406 16.738281 60.453125 16.71875 60.476562 L 16.6875 60.523438 L 16.527344 60.871094 L 16.210938 60.476562 C 16.054688 60.289062 15.941406 60.144531 15.769531 60.082031 C 15.625 60.003906 15.472656 59.960938 15.308594 59.957031 L 15.167969 59.957031 L 15.089844 59.828125 C 15.050781 59.753906 14.996094 59.691406 14.929688 59.640625 C 14.800781 59.507812 14.640625 59.425781 14.457031 59.402344 L 14.425781 59.402344 L 14.25 59.433594 L 14.171875 59.292969 C 14.03125 59.070312 13.886719 58.960938 13.824219 58.960938 C 13.753906 58.972656 13.699219 59.007812 13.667969 59.070312 L 13.585938 59.148438 L 13.351562 59.148438 C 13.097656 59.148438 12.921875 58.960938 12.796875 58.816406 C 12.671875 58.675781 12.589844 58.613281 12.527344 58.613281 L 12.480469 58.613281 C 12.386719 58.710938 12.3125 58.820312 12.257812 58.945312 L 12.070312 59.371094 L 11.816406 58.945312 C 11.769531 58.875 11.726562 58.800781 11.691406 58.722656 C 11.601562 58.542969 11.480469 58.390625 11.328125 58.265625 C 11.183594 58.164062 11.027344 58.105469 10.851562 58.089844 L 10.804688 58.089844 L 10.664062 58.136719 L 10.488281 57.964844 C 10.359375 57.832031 10.210938 57.71875 10.046875 57.632812 L 9.949219 57.570312 L 9.886719 57.457031 C 9.84375 57.386719 9.808594 57.3125 9.777344 57.238281 C 9.703125 57.050781 9.59375 56.894531 9.445312 56.761719 C 9.324219 56.679688 9.191406 56.617188 9.050781 56.574219 L 8.921875 56.542969 L 8.875 56.429688 C 8.855469 56.371094 8.828125 56.3125 8.796875 56.257812 L 8.765625 56.195312 L 8.765625 56.113281 C 8.78125 56.019531 8.796875 55.925781 8.574219 55.878906 C 8.355469 55.832031 8.195312 55.578125 8.101562 55.386719 C 8.007812 55.199219 7.941406 55.121094 7.863281 55.121094 C 7.785156 55.136719 7.660156 55.277344 7.59375 55.324219 L 7.328125 55.625 L 7.199219 55.246094 L 7.105469 55.023438 C 7.070312 54.953125 7.039062 54.878906 7.011719 54.804688 C 6.9375 54.632812 6.84375 54.472656 6.726562 54.328125 L 6.613281 54.25 L 6.644531 54.109375 C 6.652344 54.050781 6.652344 53.992188 6.644531 53.933594 C 6.628906 53.664062 6.535156 53.398438 6.410156 53.398438 L 6.3125 53.398438 L 6.15625 53.460938 L 6.046875 53.332031 C 5.832031 53.089844 5.585938 52.890625 5.300781 52.734375 L 5.160156 52.652344 L 5.160156 52.496094 C 5.171875 52.417969 5.179688 52.339844 5.175781 52.257812 L 5.175781 52.039062 C 5.207031 51.835938 5.1875 51.640625 5.113281 51.453125 C 4.988281 51.183594 4.828125 51.027344 4.71875 51.027344 L 4.527344 51.074219 L 4.449219 50.882812 L 4.355469 50.664062 C 4.339844 50.613281 4.316406 50.566406 4.289062 50.519531 L 4.242188 50.394531 L 4.324219 50.300781 C 4.324219 50.269531 4.339844 50.253906 4.355469 50.21875 C 4.371094 50.1875 4.511719 49.761719 4.449219 49.667969 C 4.386719 49.574219 4.324219 49.605469 4.242188 49.589844 C 4.164062 49.574219 3.816406 49.382812 3.691406 49.210938 C 3.636719 49.121094 3.570312 49.046875 3.484375 48.988281 L 3.34375 48.941406 L 3.308594 48.6875 C 3.304688 48.527344 3.277344 48.367188 3.230469 48.214844 L 3.214844 48.214844 L 3.214844 48.183594 C 3.171875 47.949219 3.101562 47.722656 3.011719 47.503906 C 2.980469 47.433594 2.953125 47.367188 2.929688 47.296875 L 2.851562 47.121094 L 2.996094 47.011719 C 3.125 46.910156 3.230469 46.789062 3.308594 46.648438 C 3.40625 46.394531 3.4375 46.175781 3.375 46.078125 C 3.308594 45.984375 3.246094 46.015625 3.152344 46.015625 C 3.019531 46.015625 2.902344 45.964844 2.804688 45.875 L 2.726562 45.8125 L 2.726562 45.714844 C 2.710938 45.511719 2.671875 45.308594 2.597656 45.117188 C 2.578125 45.035156 2.554688 44.957031 2.519531 44.878906 L 2.472656 44.703125 L 2.613281 44.609375 C 2.714844 44.542969 2.800781 44.457031 2.867188 44.355469 C 3.011719 44.089844 3.042969 43.898438 3.011719 43.820312 C 2.957031 43.75 2.890625 43.71875 2.804688 43.726562 C 2.535156 43.695312 2.394531 43.457031 2.296875 43.3125 L 2.265625 43.265625 L 2.265625 43.21875 C 2.238281 43.035156 2.199219 42.859375 2.140625 42.683594 L 2.0625 42.445312 L 2.296875 42.289062 C 2.480469 42.203125 2.632812 42.082031 2.757812 41.921875 C 2.882812 41.703125 2.945312 41.496094 2.898438 41.386719 C 2.851562 41.277344 2.882812 41.339844 2.804688 41.308594 L 2.425781 41.132812 L 2.757812 40.878906 C 2.839844 40.820312 2.90625 40.746094 2.960938 40.660156 C 3.078125 40.503906 3.132812 40.332031 3.121094 40.136719 L 3.089844 40.074219 L 3.121094 39.996094 C 3.167969 39.796875 3.132812 39.613281 3.027344 39.441406 C 2.945312 39.308594 2.855469 39.183594 2.757812 39.0625 L 2.644531 38.921875 L 2.726562 38.777344 C 2.824219 38.609375 2.90625 38.429688 2.960938 38.242188 L 3.027344 38.050781 L 3.121094 38.003906 L 3.328125 37.863281 C 3.535156 37.621094 3.566406 37.355469 3.421875 37.070312 C 3.355469 36.945312 3.28125 36.824219 3.199219 36.707031 L 3.074219 36.519531 L 3.246094 36.375 C 3.324219 36.328125 3.390625 36.269531 3.453125 36.203125 L 3.609375 36.027344 L 3.753906 35.886719 L 3.800781 35.839844 L 3.878906 35.839844 C 4.058594 35.796875 4.21875 35.714844 4.355469 35.585938 C 4.449219 35.476562 4.503906 35.347656 4.515625 35.203125 C 4.527344 35.054688 4.496094 34.921875 4.417969 34.796875 C 4.390625 34.714844 4.347656 34.640625 4.289062 34.574219 L 4.148438 34.371094 L 4.386719 34.226562 L 4.511719 34.148438 L 4.703125 34.023438 C 4.886719 33.9375 5.03125 33.8125 5.144531 33.644531 C 5.160156 33.609375 5.179688 33.574219 5.207031 33.546875 L 5.222656 33.546875 C 5.289062 33.441406 5.324219 33.324219 5.335938 33.199219 C 5.355469 33.027344 5.363281 32.851562 5.351562 32.679688 L 5.351562 32.566406 L 5.429688 32.488281 L 5.492188 32.410156 C 5.636719 32.210938 5.753906 31.992188 5.839844 31.761719 L 5.917969 31.605469 L 6.09375 31.605469 C 6.273438 31.601562 6.4375 31.550781 6.582031 31.445312 C 6.835938 31.25 6.910156 31.003906 6.804688 30.703125 C 6.800781 30.664062 6.789062 30.628906 6.773438 30.59375 L 6.710938 30.386719 L 6.898438 30.292969 L 7.261719 30.101562 L 7.46875 29.976562 C 7.640625 29.890625 7.785156 29.769531 7.894531 29.613281 L 7.992188 29.453125 L 8.039062 29.359375 L 8.226562 29.296875 C 8.363281 29.265625 8.496094 29.214844 8.621094 29.15625 L 8.671875 29.121094 L 8.71875 29.121094 C 8.984375 29.089844 9.175781 28.902344 9.253906 28.585938 C 9.253906 28.554688 9.269531 28.523438 9.269531 28.492188 L 9.316406 28.300781 L 9.523438 28.300781 C 9.832031 28.273438 10.027344 28.113281 10.109375 27.8125 C 10.167969 27.597656 10.203125 27.382812 10.21875 27.164062 L 10.21875 27.003906 L 10.378906 26.941406 C 10.53125 26.902344 10.679688 26.84375 10.820312 26.769531 L 11.042969 26.65625 C 11.214844 26.589844 11.371094 26.492188 11.5 26.355469 C 11.625 26.21875 11.695312 26.054688 11.707031 25.867188 C 11.703125 25.835938 11.6875 25.816406 11.660156 25.804688 L 11.578125 25.742188 L 11.578125 25.644531 C 11.546875 25.550781 11.53125 25.457031 11.5 25.363281 L 11.46875 25.234375 L 11.546875 25.140625 C 11.722656 24.90625 11.863281 24.652344 11.972656 24.382812 L 12.007812 24.269531 L 12.070312 24.238281 C 12.210938 24.128906 12.300781 23.988281 12.339844 23.8125 C 12.40625 23.492188 12.414062 23.171875 12.371094 22.847656 L 12.371094 22.707031 L 12.449219 22.613281 C 12.566406 22.476562 12.667969 22.328125 12.75 22.167969 L 12.90625 21.949219 L 12.984375 21.835938 L 13.066406 21.804688 C 13.175781 21.769531 13.269531 21.710938 13.351562 21.632812 C 13.515625 21.488281 13.570312 21.308594 13.523438 21.09375 L 13.523438 20.890625 L 13.714844 20.828125 C 13.800781 20.796875 13.878906 20.753906 13.949219 20.699219 C 14.109375 20.582031 14.1875 20.421875 14.1875 20.226562 L 14.1875 20.035156 L 14.378906 20.003906 C 14.671875 19.902344 14.8125 19.699219 14.804688 19.386719 C 14.820312 19.351562 14.824219 19.316406 14.820312 19.277344 L 14.820312 19.023438 L 15.121094 19.023438 C 15.300781 19.027344 15.464844 18.972656 15.609375 18.867188 C 15.804688 18.722656 15.882812 18.535156 15.847656 18.296875 L 15.847656 18.0625 L 16.101562 18.0625 C 16.34375 18.046875 16.546875 17.949219 16.703125 17.761719 C 16.875 17.5625 16.898438 17.347656 16.78125 17.113281 L 16.703125 16.90625 L 16.90625 16.8125 L 17.113281 16.6875 L 17.316406 16.574219 L 17.539062 16.433594 L 17.714844 16.320312 L 17.855469 16.464844 C 17.902344 16.527344 18.015625 16.636719 18.078125 16.636719 L 18.171875 16.636719 C 18.4375 16.628906 18.65625 16.515625 18.820312 16.304688 L 18.914062 16.179688 L 19.058594 16.210938 L 19.199219 16.210938 C 19.425781 16.214844 19.621094 16.132812 19.785156 15.972656 L 19.863281 15.878906 L 19.941406 15.753906 L 20.101562 15.785156 L 20.210938 15.785156 C 20.339844 15.785156 20.460938 15.761719 20.574219 15.707031 C 20.75 15.628906 20.855469 15.496094 20.890625 15.3125 L 20.921875 15.058594 L 21.175781 15.152344 C 21.261719 15.183594 21.351562 15.199219 21.445312 15.199219 C 21.679688 15.195312 21.878906 15.109375 22.046875 14.949219 C 22.0625 14.929688 22.078125 14.914062 22.078125 14.898438 L 22.265625 14.664062 L 22.457031 14.882812 C 22.535156 14.964844 22.597656 15.027344 22.628906 15.027344 L 22.742188 15.027344 C 22.886719 15.027344 23.023438 14.996094 23.152344 14.929688 L 23.34375 14.820312 L 23.46875 15.011719 L 23.53125 15.074219 C 23.640625 15.136719 23.753906 15.167969 23.878906 15.167969 C 24.023438 15.164062 24.164062 15.128906 24.289062 15.058594 L 24.433594 14.980469 L 24.558594 15.074219 C 24.707031 15.179688 24.867188 15.230469 25.050781 15.230469 C 25.191406 15.234375 25.320312 15.203125 25.445312 15.136719 C 25.503906 15.105469 25.558594 15.0625 25.601562 15.011719 L 25.648438 14.949219 L 25.730469 14.949219 L 25.917969 14.898438 L 26.109375 14.835938 L 26.203125 15.011719 C 26.257812 15.097656 26.324219 15.175781 26.394531 15.246094 C 26.507812 15.34375 26.640625 15.390625 26.789062 15.390625 C 26.925781 15.390625 27.050781 15.355469 27.167969 15.277344 L 27.375 15.136719 L 27.46875 15.089844 L 27.5625 15.089844 C 27.75 15.097656 27.921875 15.144531 28.085938 15.230469 C 28.214844 15.300781 28.324219 15.386719 28.417969 15.5 L 28.480469 15.5625 L 28.480469 15.675781 C 28.496094 16.011719 28.652344 16.253906 28.953125 16.402344 C 29.035156 16.445312 29.117188 16.464844 29.207031 16.464844 L 29.382812 16.464844 L 29.554688 16.417969 L 29.648438 16.558594 L 29.761719 16.6875 C 29.875 16.796875 30.011719 16.855469 30.171875 16.859375 C 30.257812 16.859375 30.34375 16.84375 30.425781 16.8125 L 30.644531 16.734375 L 30.726562 16.953125 C 30.789062 17.097656 30.882812 17.21875 31.011719 17.316406 C 31.121094 17.394531 31.242188 17.429688 31.375 17.429688 L 31.625 17.382812 L 32.085938 17.207031 L 31.941406 17.679688 C 31.925781 17.761719 31.863281 17.917969 31.894531 17.980469 C 32.042969 18.304688 32.296875 18.472656 32.652344 18.488281 L 32.984375 18.488281 L 32.984375 18.757812 C 32.984375 18.882812 32.984375 19.039062 33.035156 19.085938 C 33.160156 19.234375 33.316406 19.324219 33.507812 19.355469 L 33.746094 19.402344 L 33.699219 19.625 C 33.699219 19.6875 33.667969 19.847656 33.699219 19.894531 C 33.867188 20.167969 34.117188 20.304688 34.441406 20.304688 L 34.566406 20.304688 L 34.742188 20.273438 L 34.835938 20.429688 C 34.882812 20.523438 34.925781 20.617188 34.960938 20.714844 C 35.011719 20.84375 35.074219 20.984375 35.136719 21.015625 L 35.246094 21.0625 L 35.261719 21.0625 L 35.324219 21.09375 C 35.386719 21.125 35.449219 21.140625 35.515625 21.140625 C 35.617188 21.140625 35.707031 21.109375 35.785156 21.046875 L 35.832031 21.046875 L 35.941406 21 L 36.242188 20.84375 L 36.304688 21.175781 C 36.453125 21.46875 36.6875 21.621094 37.019531 21.632812 L 37.035156 21.632812 C 37.097656 21.625 37.160156 21.609375 37.222656 21.585938 L 37.351562 21.539062 L 37.460938 21.617188 C 37.5625 21.699219 37.675781 21.742188 37.808594 21.742188 C 37.945312 21.734375 38.074219 21.691406 38.1875 21.617188 C 38.363281 21.503906 38.519531 21.375 38.660156 21.222656 L 38.851562 21.03125 L 39.027344 21.253906 C 39.113281 21.378906 39.183594 21.507812 39.246094 21.648438 C 39.28125 21.753906 39.335938 21.847656 39.40625 21.933594 C 39.519531 21.992188 39.640625 22.019531 39.769531 22.011719 L 39.863281 22.011719 L 39.941406 22.089844 C 40.035156 22.199219 40.152344 22.273438 40.289062 22.3125 L 40.464844 22.34375 C 40.605469 22.339844 40.734375 22.292969 40.84375 22.199219 L 40.9375 22.121094 L 41.066406 22.167969 C 41.152344 22.203125 41.242188 22.21875 41.332031 22.21875 L 41.398438 22.21875 L 41.933594 22.089844 L 42.171875 22.027344 L 42.234375 22.265625 C 42.339844 22.5625 42.542969 22.746094 42.851562 22.816406 L 42.976562 22.816406 C 43.171875 22.8125 43.332031 22.730469 43.453125 22.582031 L 43.769531 22.21875 L 43.863281 22.691406 C 43.867188 22.71875 43.878906 22.746094 43.894531 22.769531 C 44.0625 22.953125 44.265625 23.042969 44.511719 23.039062 C 44.613281 23.03125 44.707031 23.003906 44.796875 22.960938 L 44.859375 22.929688 L 44.953125 22.878906 L 45.050781 22.914062 L 45.128906 22.945312 L 45.207031 22.945312 C 45.386719 22.929688 45.515625 22.847656 45.601562 22.691406 C 45.703125 22.496094 45.777344 22.289062 45.824219 22.074219 L 45.917969 21.648438 L 46.234375 21.949219 C 46.25 21.980469 46.265625 21.980469 46.265625 21.980469 L 46.441406 22.011719 C 46.660156 22.011719 46.839844 21.925781 46.976562 21.757812 C 47.09375 21.617188 47.121094 21.457031 47.058594 21.285156 L 47.011719 21.140625 L 47.121094 21.03125 C 47.277344 20.863281 47.414062 20.675781 47.53125 20.480469 L 47.59375 20.382812 L 47.707031 20.351562 C 47.882812 20.324219 48.019531 20.238281 48.117188 20.082031 C 48.238281 19.902344 48.332031 19.707031 48.402344 19.5 L 48.433594 19.402344 L 48.542969 19.355469 C 48.625 19.320312 48.699219 19.273438 48.765625 19.214844 C 48.886719 19.101562 48.992188 18.972656 49.082031 18.835938 L 49.175781 18.722656 L 49.300781 18.722656 C 49.464844 18.714844 49.605469 18.65625 49.730469 18.550781 L 49.964844 18.296875 L 50.09375 18.15625 L 50.265625 18.234375 L 50.296875 18.234375 C 50.367188 18.265625 50.441406 18.28125 50.519531 18.28125 C 50.699219 18.277344 50.84375 18.210938 50.960938 18.078125 L 51.136719 17.855469 L 51.261719 17.695312 L 51.453125 17.792969 L 51.546875 17.839844 L 51.722656 17.839844 C 51.929688 17.839844 52.089844 17.753906 52.210938 17.585938 C 52.253906 17.535156 52.289062 17.484375 52.320312 17.429688 L 52.449219 17.238281 L 52.636719 17.332031 L 52.78125 17.398438 L 52.921875 17.398438 C 53.140625 17.390625 53.308594 17.292969 53.429688 17.113281 C 53.476562 17.035156 53.539062 16.9375 53.601562 16.8125 L 53.761719 16.496094 C 53.761719 16.496094 53.996094 16.765625 54.015625 16.765625 C 54.148438 16.871094 54.300781 16.925781 54.472656 16.921875 C 54.601562 16.925781 54.722656 16.894531 54.835938 16.828125 L 54.976562 16.75 L 55.121094 16.859375 C 55.265625 16.984375 55.433594 17.046875 55.625 17.050781 L 55.816406 17.019531 C 55.859375 17.015625 55.894531 17 55.925781 16.96875 L 56.023438 16.921875 L 56.117188 16.953125 L 56.304688 16.984375 C 56.429688 16.984375 56.546875 16.953125 56.652344 16.890625 L 56.78125 16.796875 L 56.984375 16.671875 L 57.128906 16.859375 C 57.179688 16.941406 57.25 17.003906 57.332031 17.050781 C 57.421875 17.105469 57.515625 17.132812 57.617188 17.128906 C 57.785156 17.125 57.929688 17.074219 58.0625 16.96875 C 58.21875 16.832031 58.359375 16.679688 58.488281 16.511719 L 58.613281 16.320312 L 58.804688 16.464844 L 58.851562 16.464844 C 58.980469 16.570312 59.085938 16.699219 59.167969 16.84375 C 59.21875 16.945312 59.285156 17.027344 59.375 17.097656 L 59.5625 17.128906 L 59.609375 17.128906 L 59.753906 17.160156 L 60.449219 17.160156 L 60.449219 17.429688 C 60.441406 17.742188 60.574219 17.980469 60.84375 18.140625 C 60.925781 18.183594 61.015625 18.207031 61.113281 18.203125 C 61.289062 18.203125 61.441406 18.144531 61.570312 18.027344 L 61.648438 17.964844 L 61.777344 17.839844 L 61.933594 17.917969 L 62.140625 18.0625 C 62.257812 18.179688 62.359375 18.308594 62.441406 18.457031 C 62.457031 18.5 62.476562 18.542969 62.503906 18.582031 L 62.535156 18.628906 L 62.535156 18.691406 C 62.554688 18.9375 62.660156 19.140625 62.851562 19.292969 C 62.957031 19.371094 63.070312 19.40625 63.199219 19.402344 C 63.300781 19.40625 63.394531 19.386719 63.484375 19.339844 L 63.769531 19.214844 L 63.832031 19.546875 C 63.882812 19.761719 64.007812 19.921875 64.195312 20.035156 L 64.289062 20.113281 L 64.289062 20.273438 C 64.304688 20.457031 64.375 20.621094 64.496094 20.761719 C 64.585938 20.875 64.699219 20.9375 64.84375 20.953125 L 65.050781 20.984375 L 65.050781 21.191406 C 65.035156 21.414062 65.105469 21.609375 65.253906 21.773438 C 65.371094 21.910156 65.519531 21.972656 65.699219 21.964844 L 65.871094 21.964844 L 65.964844 21.933594 L 66.046875 21.980469 C 66.21875 22.050781 66.371094 22.148438 66.503906 22.28125 L 66.519531 22.28125 L 66.660156 22.4375 L 66.535156 22.597656 C 66.457031 22.691406 66.472656 22.722656 66.472656 22.753906 C 66.5625 22.847656 66.667969 22.914062 66.789062 22.960938 C 66.941406 23.03125 67.085938 23.121094 67.214844 23.226562 L 67.40625 23.386719 L 67.246094 23.574219 C 67.015625 23.824219 66.957031 24.109375 67.074219 24.429688 C 67.128906 24.558594 67.21875 24.660156 67.339844 24.730469 L 67.5625 24.855469 L 67.4375 25.0625 C 67.359375 25.1875 67.375 25.21875 67.390625 25.265625 C 67.503906 25.328125 67.625 25.375 67.753906 25.410156 C 67.933594 25.449219 68.101562 25.519531 68.257812 25.613281 L 68.402344 25.726562 L 68.589844 25.929688 L 68.355469 26.105469 L 68.132812 26.230469 C 68.03125 26.289062 67.941406 26.363281 67.863281 26.453125 C 67.777344 26.738281 67.824219 27.003906 68.003906 27.242188 L 68.085938 27.335938 L 68.054688 27.449219 C 68.003906 27.601562 68.003906 27.753906 68.054688 27.90625 C 68.128906 28.160156 68.296875 28.300781 68.558594 28.332031 L 68.652344 28.332031 L 68.75 28.460938 L 68.953125 28.695312 L 69.144531 28.964844 L 68.859375 29.089844 C 68.78125 29.121094 68.75 29.140625 68.75 29.15625 C 68.554688 29.472656 68.566406 29.78125 68.78125 30.085938 C 68.859375 30.199219 68.964844 30.273438 69.097656 30.308594 L 69.285156 30.371094 L 69.285156 30.5625 C 69.261719 30.78125 69.308594 30.988281 69.429688 31.175781 C 69.5625 31.347656 69.734375 31.429688 69.949219 31.429688 L 70.1875 31.429688 L 70.265625 31.476562 C 70.40625 31.570312 70.535156 31.683594 70.644531 31.808594 L 70.695312 31.871094 L 70.804688 32.046875 L 70.660156 32.171875 C 70.503906 32.316406 70.519531 32.363281 70.535156 32.410156 C 70.628906 32.507812 70.738281 32.574219 70.867188 32.617188 L 71.199219 32.820312 L 71.390625 32.964844 L 71.246094 33.152344 C 71.234375 33.183594 71.226562 33.214844 71.230469 33.246094 C 71.246094 33.3125 71.40625 33.4375 71.5 33.515625 C 71.65625 33.628906 71.792969 33.757812 71.910156 33.910156 C 71.96875 34.015625 72.015625 34.128906 72.054688 34.242188 L 72.101562 34.464844 L 71.878906 34.542969 C 71.753906 34.574219 71.59375 34.621094 71.5625 34.6875 C 71.382812 34.992188 71.390625 35.292969 71.59375 35.585938 C 71.675781 35.699219 71.78125 35.777344 71.910156 35.824219 L 71.957031 35.824219 L 72.003906 35.855469 C 72.136719 35.976562 72.25 36.113281 72.335938 36.265625 C 72.414062 36.425781 72.460938 36.59375 72.480469 36.773438 C 72.480469 36.839844 72.492188 36.910156 72.511719 36.976562 L 72.542969 37.085938 L 72.480469 37.183594 L 72.289062 37.402344 C 72.195312 37.5 72.085938 37.625 72.085938 37.6875 C 72.082031 37.839844 72.121094 37.984375 72.195312 38.113281 L 72.273438 38.242188 L 72.195312 38.367188 C 72.070312 38.574219 72.070312 38.621094 72.101562 38.667969 C 72.1875 38.722656 72.285156 38.757812 72.386719 38.777344 L 72.574219 38.828125 L 72.574219 39 C 72.558594 39.195312 72.492188 39.367188 72.371094 39.523438 C 72.226562 39.742188 72.210938 39.789062 72.257812 39.851562 C 72.304688 39.917969 72.480469 39.964844 72.605469 39.996094 L 72.765625 40.027344 Z M 26.773438 25.660156 L 26.726562 25.535156 L 26.726562 25.488281 C 26.730469 25.386719 26.71875 25.285156 26.695312 25.1875 C 26.589844 24.871094 26.441406 24.574219 26.25 24.304688 C 26.203125 24.242188 26.160156 24.179688 26.125 24.113281 C 26.023438 23.953125 25.894531 23.816406 25.746094 23.703125 L 25.554688 23.625 L 25.445312 23.589844 L 25.414062 23.464844 C 25.375 23.300781 25.300781 23.152344 25.191406 23.023438 C 25.078125 22.875 24.933594 22.777344 24.75 22.738281 C 24.71875 22.738281 24.652344 22.738281 24.589844 22.894531 C 24.539062 23.027344 24.449219 23.121094 24.320312 23.179688 L 24.226562 23.226562 L 24.132812 23.195312 C 24.023438 23.160156 23.925781 23.105469 23.832031 23.039062 C 23.75 22.984375 23.660156 22.941406 23.5625 22.914062 L 23.5 22.945312 C 23.4375 22.992188 23.40625 23.179688 23.375 23.308594 L 23.34375 23.464844 L 23.246094 23.527344 C 23.171875 23.578125 23.113281 23.640625 23.074219 23.71875 C 22.984375 23.839844 22.878906 23.945312 22.757812 24.035156 L 22.550781 24.128906 L 22.378906 24.191406 L 22.265625 24.035156 C 22.171875 23.890625 22.078125 23.828125 22.046875 23.828125 L 21.933594 23.921875 C 21.792969 24.113281 21.570312 24.113281 21.398438 24.113281 C 21.222656 24.113281 21.175781 24.144531 21.160156 24.175781 C 21.167969 24.269531 21.195312 24.359375 21.238281 24.445312 C 21.273438 24.515625 21.300781 24.589844 21.316406 24.667969 L 21.367188 24.792969 L 21.269531 24.902344 L 21.144531 25.109375 C 21.0625 25.25 20.960938 25.375 20.84375 25.488281 C 20.722656 25.582031 20.59375 25.65625 20.449219 25.710938 C 20.363281 25.730469 20.28125 25.765625 20.210938 25.820312 C 20.089844 26.078125 20.113281 26.320312 20.289062 26.546875 L 20.402344 26.65625 L 20.589844 26.769531 L 20.496094 26.972656 C 20.445312 27.0625 20.390625 27.148438 20.320312 27.226562 C 20.265625 27.300781 20.21875 27.378906 20.179688 27.464844 C 20.199219 27.683594 20.300781 27.859375 20.480469 27.984375 L 20.652344 28.128906 L 20.558594 28.316406 C 20.484375 28.621094 20.574219 28.863281 20.828125 29.042969 C 20.917969 29.105469 21.019531 29.140625 21.128906 29.140625 C 21.261719 29.136719 21.382812 29.101562 21.492188 29.027344 L 21.699219 28.871094 L 22.078125 28.523438 L 22.078125 29.027344 C 22.085938 29.121094 22.085938 29.21875 22.078125 29.3125 C 22.066406 29.414062 22.070312 29.515625 22.09375 29.613281 C 22.246094 29.804688 22.449219 29.898438 22.695312 29.898438 L 22.867188 29.898438 C 23.128906 29.820312 23.265625 29.648438 23.277344 29.375 L 23.359375 28.886719 L 23.707031 29.25 L 23.816406 29.375 C 23.878906 29.457031 23.953125 29.527344 24.039062 29.582031 L 24.148438 29.582031 C 24.429688 29.574219 24.644531 29.453125 24.796875 29.21875 C 24.820312 29.167969 24.839844 29.113281 24.859375 29.058594 L 24.859375 28.949219 L 24.953125 28.902344 C 25.117188 28.816406 25.269531 28.714844 25.414062 28.601562 L 25.523438 28.507812 L 25.632812 28.425781 L 25.871094 28.425781 C 25.960938 28.429688 26.042969 28.414062 26.125 28.378906 C 26.296875 28.316406 26.503906 28.160156 26.519531 27.765625 C 26.519531 27.667969 26.503906 27.542969 26.488281 27.402344 L 26.457031 27.242188 L 26.582031 27.148438 C 26.777344 27.019531 26.871094 26.839844 26.867188 26.609375 C 26.886719 26.289062 26.855469 25.972656 26.773438 25.660156 Z M 59.972656 26.863281 C 59.957031 26.847656 59.941406 26.832031 59.847656 26.832031 L 59.691406 26.832031 L 59.484375 26.785156 L 59.261719 26.6875 L 59.359375 26.46875 C 59.4375 26.230469 59.4375 26.058594 59.390625 25.992188 C 59.339844 25.929688 59.246094 25.945312 59.183594 25.945312 C 59.121094 25.945312 58.757812 25.742188 58.628906 25.582031 C 58.503906 25.425781 58.457031 25.378906 58.378906 25.378906 L 58.347656 25.378906 L 58.296875 25.425781 L 57.996094 25.710938 L 57.886719 25.3125 C 57.851562 25.132812 57.777344 24.96875 57.664062 24.824219 C 57.550781 24.667969 57.398438 24.566406 57.207031 24.523438 C 57.175781 24.523438 57.113281 24.523438 57.035156 24.699219 C 56.992188 24.792969 56.929688 24.863281 56.84375 24.917969 L 56.667969 25.046875 L 56.527344 24.871094 C 56.386719 24.714844 56.273438 24.667969 56.210938 24.667969 C 56.148438 24.667969 56.070312 24.746094 56.039062 24.808594 C 56.003906 24.871094 55.625 25.0625 55.421875 25.09375 C 55.214844 25.125 55.105469 25.15625 55.074219 25.234375 C 55.078125 25.316406 55.105469 25.390625 55.152344 25.457031 L 55.40625 26.007812 L 54.851562 25.804688 L 54.695312 25.757812 L 54.503906 25.757812 C 54.265625 25.757812 54.140625 25.820312 54.109375 25.867188 C 54.078125 25.914062 54.09375 26.027344 54.109375 26.105469 C 54.125 26.183594 54.046875 26.578125 53.933594 26.753906 C 53.824219 26.925781 53.761719 27.050781 53.808594 27.101562 L 54.109375 27.367188 L 53.761719 27.527344 C 53.730469 27.542969 53.683594 27.558594 53.714844 27.714844 C 53.746094 27.875 53.632812 28.144531 53.507812 28.300781 C 53.382812 28.460938 53.367188 28.507812 53.398438 28.554688 C 53.488281 28.613281 53.589844 28.65625 53.699219 28.679688 L 53.855469 28.726562 L 53.980469 28.773438 L 54.015625 28.902344 C 54.0625 29.046875 54.140625 29.171875 54.25 29.28125 L 54.441406 29.453125 L 54.234375 29.628906 L 54.140625 29.722656 C 54.058594 29.78125 53.992188 29.847656 53.933594 29.929688 C 53.890625 30.242188 54 30.484375 54.265625 30.65625 C 54.347656 30.707031 54.4375 30.734375 54.535156 30.734375 L 54.597656 30.734375 L 54.742188 30.703125 L 54.835938 30.828125 C 54.953125 30.988281 55.113281 31.066406 55.308594 31.066406 L 55.40625 31.066406 L 55.847656 31.035156 L 56.023438 31.003906 L 56.101562 31.144531 C 56.148438 31.230469 56.210938 31.296875 56.289062 31.351562 C 56.382812 31.425781 56.488281 31.464844 56.605469 31.460938 C 56.738281 31.460938 56.859375 31.421875 56.96875 31.351562 C 57.105469 31.257812 57.230469 31.152344 57.351562 31.035156 L 57.492188 30.894531 L 57.648438 31.003906 L 57.871094 31.097656 L 57.996094 31.097656 C 58.21875 31.085938 58.386719 30.984375 58.503906 30.796875 C 58.640625 30.558594 58.753906 30.304688 58.835938 30.039062 L 58.835938 29.960938 L 58.898438 29.914062 C 58.992188 29.832031 59.0625 29.738281 59.121094 29.628906 C 59.222656 29.332031 59.277344 29.027344 59.292969 28.710938 C 59.308594 28.640625 59.3125 28.566406 59.308594 28.492188 L 59.308594 28.207031 L 59.390625 28.144531 L 59.515625 28 L 59.65625 27.828125 C 59.816406 27.652344 59.925781 27.542969 59.957031 27.367188 C 59.988281 27.195312 60.023438 26.925781 59.972656 26.863281 Z M 24.605469 26.925781 L 24.386719 26.894531 C 24.320312 26.878906 24.242188 26.738281 24.164062 26.640625 L 24.054688 26.46875 L 23.863281 26.53125 L 23.65625 26.625 C 23.339844 26.765625 23.007812 26.855469 22.664062 26.894531 L 22.457031 26.894531 L 22.347656 26.847656 C 22.269531 26.824219 22.203125 26.785156 22.140625 26.738281 L 21.855469 26.515625 L 21.648438 27.117188 L 21.808594 27.226562 C 21.914062 27.296875 22.03125 27.332031 22.15625 27.335938 L 22.441406 27.335938 C 22.441406 27.351562 22.445312 27.359375 22.457031 27.367188 L 22.519531 27.464844 L 22.628906 27.496094 C 22.695312 27.503906 22.753906 27.53125 22.804688 27.574219 L 22.898438 27.652344 L 23.011719 27.621094 L 23.246094 27.589844 L 23.375 27.589844 C 23.546875 27.625 23.703125 27.691406 23.847656 27.796875 L 24.070312 27.921875 L 24.179688 27.890625 C 24.320312 27.835938 24.453125 27.761719 24.574219 27.667969 C 24.703125 27.5625 24.800781 27.4375 24.875 27.289062 L 25.113281 26.894531 L 24.652344 26.925781 Z M 24.605469 26.925781 " fill-opacity="1" fill-rule="nonzero"/><g clip-path="url(#e0265dceb2)"><path fill="#82a869" d="M 74.742188 39.523438 L 74.613281 39.363281 C 74.636719 39.347656 74.644531 39.328125 74.644531 39.300781 C 74.835938 39.015625 74.851562 38.636719 74.566406 38.257812 C 74.402344 38.050781 74.210938 37.863281 73.996094 37.703125 L 74.09375 37.53125 C 74.234375 37.183594 74.378906 36.960938 74.378906 36.660156 C 74.378906 36.359375 74.25 35.886719 73.902344 35.902344 C 73.859375 35.746094 73.800781 35.589844 73.730469 35.445312 C 73.703125 35.410156 73.679688 35.375 73.664062 35.332031 C 73.824219 35.238281 73.945312 35.105469 74.03125 34.9375 C 74.234375 34.574219 74.378906 34.023438 73.761719 33.972656 L 73.617188 33.910156 C 73.53125 33.554688 73.390625 33.222656 73.191406 32.914062 L 73.050781 32.664062 C 73.035156 32.664062 73.035156 32.648438 73.035156 32.632812 C 72.882812 32.292969 72.679688 31.988281 72.433594 31.714844 L 72.371094 31.636719 C 72.25 31.308594 72.085938 31 71.878906 30.71875 L 71.816406 30.640625 L 71.910156 30.496094 C 72.117188 30.117188 72.242188 29.550781 71.609375 29.519531 C 71.488281 29.484375 71.394531 29.417969 71.324219 29.3125 C 71.484375 28.949219 71.53125 28.507812 70.992188 28.460938 C 70.820312 28.460938 70.710938 28.269531 70.597656 28.113281 C 70.882812 27.828125 71.152344 27.382812 70.628906 27.148438 C 70.394531 27.035156 70.425781 26.609375 70.25 26.40625 C 70.300781 26.339844 70.332031 26.265625 70.34375 26.183594 C 70.457031 25.820312 70.472656 25.3125 69.996094 25.296875 C 69.96875 25.203125 69.925781 25.113281 69.871094 25.03125 C 69.753906 24.855469 69.617188 24.699219 69.460938 24.554688 C 69.511719 24.523438 69.550781 24.480469 69.585938 24.429688 C 69.871094 24.128906 70.140625 23.640625 69.570312 23.433594 C 69.253906 23.324219 69.332031 22.628906 68.875 22.628906 L 68.78125 22.628906 C 68.65625 22.421875 68.507812 22.230469 68.335938 22.058594 L 68.132812 21.851562 C 67.984375 21.578125 67.804688 21.324219 67.59375 21.09375 L 67.5 21 C 67.535156 20.953125 67.5625 20.898438 67.578125 20.84375 C 67.722656 20.460938 67.785156 19.894531 67.183594 19.941406 C 67.054688 19.929688 66.949219 19.871094 66.867188 19.765625 C 66.976562 19.402344 66.992188 18.945312 66.457031 18.976562 C 66.203125 18.976562 66.046875 18.597656 65.792969 18.488281 C 65.8125 18.355469 65.804688 18.222656 65.777344 18.09375 C 65.664062 17.714844 65.398438 17.238281 64.96875 17.554688 C 64.921875 17.316406 64.765625 17.128906 64.402344 17.207031 C 64.039062 17.285156 63.800781 16.652344 63.421875 16.890625 C 63.359375 16.921875 63.324219 16.984375 63.277344 17.050781 L 63.105469 16.859375 C 62.960938 16.734375 62.851562 16.621094 62.742188 16.542969 C 62.742188 16.148438 62.613281 15.691406 62.09375 15.878906 C 61.902344 15.957031 61.664062 15.738281 61.445312 15.660156 C 61.222656 15.578125 61.316406 15.246094 61.082031 15.214844 C 60.84375 15.183594 60.511719 15.578125 60.195312 15.660156 L 60.148438 15.660156 C 60.015625 15.511719 59.871094 15.375 59.722656 15.246094 C 59.4375 15.027344 59.261719 14.835938 58.976562 14.773438 C 58.765625 14.726562 58.554688 14.738281 58.347656 14.804688 C 58.109375 14.695312 57.871094 14.472656 57.632812 14.664062 C 57.558594 14.726562 57.511719 14.804688 57.492188 14.898438 C 57.207031 14.867188 56.96875 14.347656 56.605469 14.535156 C 56.242188 14.726562 56.386719 14.882812 56.289062 15.105469 C 56.257812 14.9375 56.183594 14.789062 56.070312 14.664062 C 55.816406 14.363281 55.359375 14.0625 55.121094 14.582031 C 55.074219 14.695312 54.945312 14.742188 54.804688 14.789062 C 54.746094 14.664062 54.65625 14.5625 54.535156 14.488281 C 54.21875 14.269531 53.714844 14.0625 53.601562 14.632812 C 53.554688 14.804688 53.332031 14.882812 53.160156 14.996094 C 52.984375 15.105469 52.589844 14.773438 52.402344 15.042969 C 52.328125 15.164062 52.304688 15.296875 52.335938 15.4375 C 52.328125 15.4375 52.320312 15.441406 52.320312 15.453125 C 52.054688 15.609375 51.609375 15.121094 51.324219 15.453125 C 51.042969 15.785156 51.230469 15.753906 51.246094 15.957031 C 50.960938 16.054688 50.582031 15.578125 50.28125 15.878906 C 49.980469 16.179688 50.15625 16.242188 50.140625 16.464844 C 49.871094 16.496094 49.539062 16.039062 49.238281 16.304688 C 48.9375 16.574219 49.082031 16.859375 48.984375 17.128906 C 48.734375 17.082031 48.433594 16.765625 48.179688 17 C 47.925781 17.238281 48.070312 17.632812 47.941406 17.917969 C 47.925781 17.953125 47.90625 17.984375 47.878906 18.011719 C 47.625 17.996094 47.292969 17.792969 47.105469 18.0625 C 46.914062 18.328125 47.089844 18.613281 47.074219 18.898438 C 46.882812 18.804688 46.695312 18.722656 46.519531 18.867188 C 46.347656 19.007812 46.425781 19.5 46.28125 19.765625 C 46.25 19.839844 46.207031 19.910156 46.15625 19.972656 L 45.917969 19.863281 C 45.570312 19.800781 45.082031 19.800781 45.175781 20.320312 C 45.207031 20.429688 45.128906 20.542969 45.035156 20.652344 C 44.984375 20.566406 44.929688 20.488281 44.859375 20.414062 C 44.621094 20.195312 44.257812 19.972656 44.023438 20.164062 C 43.945312 20.058594 43.84375 20 43.714844 19.988281 C 43.585938 19.980469 43.480469 20.023438 43.390625 20.113281 C 43.230469 20.242188 42.992188 20.148438 42.773438 20.113281 C 42.703125 19.945312 42.578125 19.863281 42.394531 19.878906 C 42.203125 19.894531 42.046875 20.097656 41.855469 20.273438 C 41.792969 19.863281 41.554688 19.355469 41.066406 19.6875 C 40.574219 20.019531 40.289062 19.371094 40.007812 19.734375 L 39.957031 19.816406 C 39.832031 19.632812 39.667969 19.496094 39.46875 19.402344 C 39.230469 19.308594 38.914062 19.230469 38.726562 19.339844 C 38.519531 19.199219 38.3125 18.976562 38.0625 19.136719 C 37.976562 19.179688 37.921875 19.246094 37.902344 19.339844 L 37.871094 19.277344 C 37.683594 18.929688 37.316406 18.519531 36.953125 18.976562 C 36.898438 19.039062 36.832031 19.078125 36.75 19.085938 C 36.652344 18.960938 36.511719 18.914062 36.273438 19.007812 C 36.039062 19.105469 35.957031 18.960938 35.785156 18.882812 C 35.664062 18.710938 35.515625 18.570312 35.34375 18.457031 C 35.292969 18.15625 35.277344 17.949219 35.121094 17.730469 C 34.960938 17.507812 34.628906 17.175781 34.363281 17.300781 C 34.292969 17.082031 34.1875 16.882812 34.046875 16.703125 C 33.933594 16.59375 33.804688 16.503906 33.667969 16.433594 C 33.660156 16.292969 33.625 16.160156 33.554688 16.039062 C 33.472656 15.851562 33.351562 15.699219 33.191406 15.578125 C 33.191406 15.246094 33.050781 14.929688 32.589844 15.058594 C 32.417969 15.089844 32.257812 14.949219 32.070312 14.820312 C 31.878906 14.695312 31.863281 14.617188 31.609375 14.648438 C 31.359375 14.679688 31.105469 14.140625 30.757812 14.171875 C 30.660156 13.921875 30.472656 13.761719 30.109375 13.921875 C 29.746094 14.078125 29.382812 13.476562 29.050781 13.792969 L 28.984375 13.871094 L 28.75 13.730469 L 28.6875 13.683594 C 28.703125 13.351562 28.589844 13.035156 28.132812 13.113281 C 27.675781 13.191406 27.53125 12.511719 27.121094 12.734375 C 27.042969 12.765625 26.992188 12.859375 26.945312 12.957031 C 26.804688 12.734375 26.679688 12.480469 26.394531 12.53125 C 26.109375 12.578125 25.917969 13.050781 25.632812 13.242188 L 25.585938 13.242188 C 25.429688 12.957031 25.335938 12.734375 25.113281 12.578125 C 24.890625 12.417969 24.226562 12.132812 24.101562 12.734375 C 24.089844 12.800781 24.058594 12.855469 24.007812 12.894531 C 23.890625 12.730469 23.742188 12.609375 23.5625 12.53125 C 23.167969 12.371094 22.597656 12.292969 22.613281 12.910156 C 22.347656 12.75 22.15625 12.609375 21.886719 12.59375 C 21.652344 12.566406 21.429688 12.605469 21.222656 12.71875 L 20.984375 12.609375 C 20.605469 12.480469 20.054688 12.433594 20.085938 13.003906 C 19.769531 12.84375 19.4375 12.8125 19.328125 13.289062 C 19.277344 13.476562 19.011719 13.539062 18.804688 13.667969 L 18.742188 13.636719 C 18.347656 13.507812 17.777344 13.460938 17.824219 14.0625 C 17.824219 14.1875 17.777344 14.292969 17.683594 14.378906 C 17.539062 14.292969 17.386719 14.246094 17.222656 14.234375 C 16.796875 14.21875 16.242188 14.347656 16.464844 14.914062 C 16.476562 14.945312 16.484375 14.976562 16.480469 15.011719 C 16.390625 15.132812 16.285156 15.238281 16.164062 15.328125 C 15.949219 15.417969 15.730469 15.488281 15.5 15.53125 L 15.4375 15.53125 C 15.027344 15.4375 14.457031 15.453125 14.566406 16.054688 C 14.578125 16.140625 14.554688 16.21875 14.503906 16.289062 C 14.234375 16.242188 14 16.339844 13.964844 16.734375 C 13.933594 17.128906 13.285156 17.160156 13.367188 17.585938 C 13.113281 17.679688 12.734375 17.695312 12.703125 18.027344 L 12.703125 18.125 C 12.480469 18.125 12.289062 18.234375 12.273438 18.582031 C 12.257812 18.929688 11.832031 18.976562 11.707031 19.230469 C 11.527344 19.332031 11.457031 19.484375 11.5 19.6875 C 11.515625 20.019531 10.835938 20.195312 11.011719 20.621094 C 11.074219 20.792969 11.308594 20.890625 11.515625 21 C 11.492188 21.121094 11.449219 21.238281 11.390625 21.347656 C 11.246094 21.554688 10.960938 21.695312 10.820312 21.871094 C 10.652344 21.886719 10.546875 21.976562 10.503906 22.136719 C 10.457031 22.34375 10.628906 22.582031 10.742188 22.832031 L 10.644531 22.894531 C 10.472656 23.101562 10.597656 23.574219 10.488281 23.875 L 10.441406 23.972656 C 10.355469 24.023438 10.300781 24.097656 10.265625 24.191406 L 10.09375 24.429688 C 9.886719 24.554688 9.554688 24.617188 9.570312 24.917969 C 9.585938 25.21875 9.746094 25.21875 9.902344 25.378906 L 9.886719 25.378906 C 9.710938 25.289062 9.558594 25.320312 9.429688 25.472656 C 9.308594 25.484375 9.203125 25.53125 9.113281 25.613281 L 9.066406 25.679688 C 8.8125 25.710938 8.464844 25.644531 8.371094 25.945312 C 8.332031 26.070312 8.34375 26.191406 8.402344 26.308594 L 8.339844 26.40625 C 8.148438 26.6875 7.5 26.4375 7.375 26.878906 C 7.246094 27.320312 7.546875 27.402344 7.660156 27.683594 C 7.582031 27.738281 7.496094 27.78125 7.40625 27.8125 C 7.105469 27.921875 6.679688 27.78125 6.472656 27.953125 C 6.195312 28.183594 6.070312 28.480469 6.09375 28.839844 L 5.886719 28.886719 C 5.523438 28.710938 5.019531 28.617188 4.96875 29.203125 C 4.9375 29.535156 4.226562 29.628906 4.339844 30.070312 C 4.355469 30.101562 4.355469 30.117188 4.371094 30.132812 C 4.386719 30.148438 4.355469 30.609375 4.355469 30.878906 C 4.273438 30.929688 4.21875 30.996094 4.179688 31.082031 C 4.023438 31.382812 3.34375 31.210938 3.277344 31.667969 C 3.214844 32.125 3.625 32.285156 3.707031 32.617188 L 3.515625 32.820312 C 3.261719 32.980469 2.835938 32.980469 2.664062 33.167969 C 2.488281 33.359375 2.25 33.34375 2.296875 33.707031 C 2.347656 34.070312 1.667969 34.289062 1.871094 34.71875 C 1.976562 34.859375 2.113281 34.953125 2.28125 35 L 2.1875 35.113281 C 2.058594 35.222656 1.917969 35.3125 1.761719 35.382812 C 1.507812 35.398438 1.300781 35.539062 1.335938 35.917969 C 1.367188 36.296875 0.671875 36.472656 0.875 36.898438 C 0.9375 37.054688 1.175781 37.152344 1.398438 37.261719 C 1.410156 37.453125 1.402344 37.640625 1.367188 37.832031 L 1.335938 37.894531 C 1.035156 37.894531 0.796875 38.035156 0.859375 38.445312 C 0.921875 38.859375 0.242188 39.046875 0.464844 39.472656 C 0.6875 39.902344 0.96875 39.742188 1.238281 39.886719 C 0.96875 40.027344 0.574219 40.027344 0.433594 40.234375 C 0.210938 40.589844 0.1875 40.957031 0.371094 41.339844 C 0.320312 41.367188 0.277344 41.402344 0.242188 41.449219 C 0.0390625 41.761719 -0.00390625 42.09375 0.117188 42.445312 L 0.164062 42.554688 C 0.171875 42.5625 0.179688 42.574219 0.179688 42.585938 L 0.226562 42.652344 L 0.273438 42.730469 C 0.414062 42.890625 0.527344 43.0625 0.621094 43.25 C 0.664062 43.40625 0.679688 43.566406 0.671875 43.726562 C 0.539062 43.738281 0.433594 43.796875 0.355469 43.898438 C 0.226562 44.082031 0.164062 44.285156 0.160156 44.503906 C 0.15625 44.726562 0.214844 44.929688 0.339844 45.117188 C 0.492188 45.339844 0.703125 45.464844 0.96875 45.496094 C 1.015625 45.558594 1.054688 45.628906 1.082031 45.699219 C 1.128906 45.886719 1.144531 46.078125 1.128906 46.269531 C 0.984375 46.3125 0.867188 46.398438 0.78125 46.523438 C 0.679688 46.71875 0.640625 46.925781 0.667969 47.144531 C 0.691406 47.363281 0.777344 47.558594 0.921875 47.722656 C 1.054688 47.886719 1.222656 47.980469 1.429688 48.007812 L 1.476562 48.085938 C 1.449219 48.125 1.425781 48.167969 1.414062 48.214844 C 1.351562 48.480469 1.699219 48.859375 1.746094 49.210938 C 1.792969 49.558594 1.570312 49.921875 1.699219 50.171875 L 1.730469 50.21875 C 1.632812 50.578125 1.695312 50.90625 1.917969 51.199219 C 2.125 51.46875 2.472656 51.609375 2.929688 51.5 C 2.957031 51.535156 2.976562 51.570312 2.996094 51.609375 C 3.121094 51.910156 3.011719 52.355469 3.199219 52.542969 C 3.277344 52.621094 3.367188 52.683594 3.46875 52.734375 C 3.378906 52.914062 3.347656 53.101562 3.375 53.300781 L 3.515625 53.539062 C 3.472656 53.667969 3.492188 53.78125 3.578125 53.886719 C 3.753906 54.109375 4.273438 54.042969 4.574219 54.203125 L 4.78125 54.359375 C 4.621094 54.597656 4.355469 54.804688 4.355469 55.039062 C 4.359375 55.261719 4.425781 55.460938 4.554688 55.640625 C 4.679688 55.824219 4.84375 55.953125 5.050781 56.035156 C 5.277344 56.121094 5.503906 56.117188 5.730469 56.019531 C 5.777344 56.226562 5.777344 56.480469 5.855469 56.636719 C 5.867188 56.769531 5.902344 56.898438 5.964844 57.015625 C 6.125 57.332031 6.441406 57.539062 6.914062 57.488281 C 7.109375 57.464844 7.296875 57.421875 7.484375 57.363281 L 7.53125 57.441406 C 7.660156 57.742188 7.578125 58.183594 7.769531 58.375 C 8.003906 58.582031 8.277344 58.683594 8.589844 58.675781 C 8.621094 58.894531 8.65625 59.117188 8.78125 59.226562 C 9.039062 59.441406 9.335938 59.519531 9.667969 59.464844 C 9.839844 59.703125 9.933594 60.050781 10.171875 60.144531 C 10.300781 60.1875 10.433594 60.210938 10.566406 60.207031 C 10.613281 60.429688 10.664062 60.667969 10.804688 60.761719 C 10.898438 60.839844 11.003906 60.898438 11.121094 60.933594 L 11.199219 61.03125 C 11.339844 61.164062 11.507812 61.25 11.703125 61.28125 C 11.894531 61.3125 12.082031 61.285156 12.257812 61.203125 L 12.496094 61.078125 C 12.476562 61.164062 12.484375 61.246094 12.511719 61.332031 C 12.605469 61.53125 12.746094 61.691406 12.9375 61.808594 C 13.125 61.925781 13.332031 61.984375 13.554688 61.976562 C 13.71875 61.980469 13.867188 61.933594 14 61.835938 C 14.015625 61.9375 14.058594 62.027344 14.125 62.105469 C 14.292969 62.253906 14.484375 62.34375 14.707031 62.378906 C 14.925781 62.414062 15.136719 62.382812 15.34375 62.292969 L 15.375 62.292969 C 15.414062 62.449219 15.496094 62.578125 15.625 62.671875 L 15.769531 62.738281 C 15.871094 62.921875 16.011719 63.070312 16.195312 63.179688 C 16.476562 63.324219 16.753906 63.324219 17.035156 63.179688 C 17.191406 63.519531 17.457031 63.730469 17.824219 63.8125 C 18.03125 63.851562 18.226562 63.820312 18.410156 63.714844 C 18.679688 63.847656 18.953125 63.855469 19.230469 63.730469 L 19.34375 63.683594 L 19.4375 63.796875 C 19.691406 64.046875 20.070312 64.144531 20.527344 63.9375 L 20.621094 63.90625 C 20.855469 64.074219 21.113281 64.132812 21.398438 64.078125 C 21.558594 64.054688 21.71875 64.011719 21.871094 63.953125 C 22.015625 64.296875 22.269531 64.519531 22.628906 64.617188 C 22.894531 64.6875 23.136719 64.648438 23.359375 64.492188 C 23.546875 64.695312 23.777344 64.824219 24.054688 64.871094 C 24.230469 64.886719 24.398438 64.855469 24.558594 64.773438 L 24.605469 64.824219 C 24.78125 64.925781 24.96875 64.972656 25.171875 64.957031 C 25.375 64.945312 25.554688 64.871094 25.714844 64.742188 C 25.886719 64.609375 26.046875 64.453125 26.1875 64.285156 C 26.394531 64.523438 26.488281 64.917969 26.742188 64.996094 C 27.042969 65.113281 27.339844 65.097656 27.625 64.949219 C 27.980469 64.855469 28.320312 64.71875 28.636719 64.539062 L 28.859375 64.585938 C 28.976562 64.640625 29.082031 64.707031 29.175781 64.792969 C 29.28125 65.015625 29.4375 65.1875 29.648438 65.3125 C 29.8125 65.402344 29.984375 65.441406 30.167969 65.425781 C 30.351562 65.410156 30.515625 65.347656 30.660156 65.234375 C 30.738281 65.308594 30.824219 65.371094 30.914062 65.421875 C 31.257812 65.609375 31.585938 65.582031 31.894531 65.34375 C 32.054688 65.46875 32.230469 65.535156 32.433594 65.542969 C 32.632812 65.554688 32.816406 65.503906 32.984375 65.390625 L 33.066406 65.34375 C 33.328125 65.515625 33.605469 65.550781 33.902344 65.453125 C 34.054688 65.410156 34.203125 65.351562 34.347656 65.28125 C 34.527344 65.628906 34.8125 65.835938 35.199219 65.898438 C 35.402344 65.917969 35.589844 65.878906 35.765625 65.78125 C 35.941406 65.683594 36.074219 65.542969 36.164062 65.359375 L 36.179688 65.359375 C 36.21875 65.523438 36.300781 65.664062 36.433594 65.769531 C 36.765625 65.949219 37.101562 65.960938 37.445312 65.800781 C 37.621094 65.945312 37.824219 66.023438 38.050781 66.046875 C 38.28125 66.066406 38.492188 66.019531 38.695312 65.914062 C 38.816406 65.847656 38.917969 65.757812 38.992188 65.644531 C 39.058594 65.738281 39.144531 65.804688 39.246094 65.851562 C 39.441406 65.90625 39.636719 65.90625 39.832031 65.851562 C 40.101562 65.882812 40.34375 65.820312 40.558594 65.660156 C 40.800781 65.472656 41.015625 65.261719 41.207031 65.027344 C 41.507812 65.171875 41.730469 65.582031 42.015625 65.597656 C 42.367188 65.621094 42.667969 65.507812 42.914062 65.25 C 43.097656 65.199219 43.277344 65.136719 43.453125 65.058594 L 43.816406 64.886719 C 44.085938 65.042969 44.320312 65.375 44.574219 65.375 L 44.6875 65.375 C 44.898438 65.53125 45.132812 65.605469 45.398438 65.597656 C 45.769531 65.585938 46.03125 65.410156 46.1875 65.074219 C 46.230469 65.140625 46.285156 65.199219 46.347656 65.25 C 46.65625 65.417969 46.980469 65.441406 47.308594 65.3125 C 47.695312 65.402344 48.015625 65.296875 48.273438 64.996094 C 48.417969 64.839844 48.539062 64.664062 48.636719 64.476562 C 48.828125 64.695312 48.953125 64.996094 49.175781 65.058594 C 49.394531 65.121094 49.613281 65.113281 49.828125 65.042969 C 50.042969 64.96875 50.222656 64.84375 50.363281 64.664062 L 50.378906 64.664062 L 50.773438 64.523438 C 51.03125 64.769531 51.335938 64.867188 51.691406 64.824219 C 52.042969 64.785156 52.285156 64.601562 52.417969 64.269531 C 52.777344 64.449219 53.136719 64.445312 53.492188 64.253906 C 53.660156 64.15625 53.789062 64.019531 53.871094 63.84375 L 53.996094 63.765625 L 54.3125 63.527344 C 54.390625 63.578125 54.476562 63.617188 54.566406 63.636719 C 54.898438 63.75 55.292969 63.652344 55.59375 63.273438 C 55.625 63.253906 55.644531 63.226562 55.65625 63.195312 C 55.804688 63.277344 55.964844 63.328125 56.132812 63.335938 C 56.5 63.355469 56.777344 63.207031 56.96875 62.894531 C 57.300781 62.988281 57.664062 62.894531 57.964844 62.53125 C 58.003906 62.488281 58.035156 62.441406 58.0625 62.390625 L 58.09375 62.390625 C 58.285156 62.445312 58.480469 62.4375 58.667969 62.367188 C 58.859375 62.296875 59.007812 62.175781 59.121094 62.007812 C 59.269531 61.800781 59.398438 61.582031 59.5 61.347656 C 59.5625 61.457031 59.660156 61.53125 59.785156 61.566406 C 60.003906 61.617188 60.21875 61.605469 60.433594 61.527344 C 60.644531 61.449219 60.820312 61.320312 60.953125 61.140625 C 61.09375 60.949219 61.144531 60.742188 61.113281 60.507812 L 61.269531 60.445312 C 61.632812 60.289062 61.886719 60.207031 62.09375 59.972656 L 62.15625 59.890625 L 62.171875 59.890625 L 62.457031 59.8125 C 62.566406 59.863281 62.683594 59.886719 62.804688 59.890625 C 63.167969 59.890625 63.5 59.6875 63.691406 59.242188 C 63.707031 59.183594 63.726562 59.125 63.753906 59.070312 C 64.117188 59.21875 64.464844 59.1875 64.796875 58.976562 C 64.949219 58.863281 65.058594 58.722656 65.128906 58.546875 C 65.394531 58.464844 65.589844 58.296875 65.714844 58.042969 C 65.824219 57.792969 65.914062 57.535156 65.980469 57.269531 C 66.054688 57.332031 66.136719 57.371094 66.234375 57.378906 C 66.460938 57.382812 66.671875 57.324219 66.863281 57.203125 C 67.054688 57.082031 67.199219 56.921875 67.292969 56.714844 L 67.339844 56.574219 C 67.609375 56.386719 67.746094 56.128906 67.753906 55.800781 L 67.753906 55.71875 C 68.039062 55.722656 68.292969 55.636719 68.511719 55.453125 C 68.761719 55.238281 68.863281 54.96875 68.8125 54.644531 C 69.203125 54.625 69.5 54.445312 69.699219 54.109375 C 69.769531 53.980469 69.8125 53.84375 69.824219 53.695312 C 70.144531 53.617188 70.386719 53.433594 70.550781 53.144531 C 70.617188 53.03125 70.648438 52.910156 70.644531 52.78125 C 70.785156 52.65625 70.875 52.503906 70.914062 52.320312 C 70.992188 52.003906 71.023438 51.683594 71.007812 51.359375 L 71.199219 51.277344 C 71.546875 51.105469 71.800781 51.027344 71.988281 50.789062 C 72.09375 50.664062 72.179688 50.527344 72.242188 50.378906 C 72.324219 50.300781 72.398438 50.21875 72.464844 50.125 C 72.605469 49.890625 72.636719 49.644531 72.558594 49.382812 C 72.796875 49.152344 72.886719 48.871094 72.828125 48.546875 C 72.785156 48.3125 72.71875 48.085938 72.636719 47.867188 L 72.78125 47.800781 C 73.097656 47.597656 73.347656 47.503906 73.523438 47.234375 C 73.699219 46.964844 73.886719 46.492188 73.539062 46.300781 C 73.566406 46.273438 73.585938 46.242188 73.601562 46.207031 C 73.777344 45.859375 73.933594 45.652344 73.949219 45.335938 C 73.957031 45.191406 73.941406 45.050781 73.902344 44.910156 C 74.078125 44.640625 74.203125 44.453125 74.21875 44.183594 C 74.242188 43.976562 74.21875 43.777344 74.140625 43.582031 L 74.3125 43.265625 C 74.546875 42.976562 74.585938 42.660156 74.441406 42.320312 C 74.347656 42.082031 74.226562 41.859375 74.078125 41.65625 C 74.160156 41.539062 74.234375 41.417969 74.296875 41.292969 C 74.390625 41.136719 74.476562 40.980469 74.550781 40.816406 C 74.636719 40.746094 74.71875 40.667969 74.789062 40.582031 C 74.976562 40.296875 74.992188 39.917969 74.742188 39.523438 Z M 42.015625 22.28125 C 42.144531 22.675781 42.414062 22.917969 42.820312 23.007812 C 43.160156 23.085938 43.433594 22.984375 43.640625 22.707031 C 43.65625 22.78125 43.6875 22.851562 43.738281 22.914062 C 43.882812 23.066406 44.058594 23.167969 44.265625 23.214844 C 44.472656 23.261719 44.675781 23.253906 44.875 23.179688 L 44.96875 23.148438 L 45.097656 23.179688 C 45.417969 23.21875 45.652344 23.097656 45.808594 22.816406 C 45.929688 22.597656 46.011719 22.367188 46.0625 22.121094 C 46.09375 22.164062 46.136719 22.195312 46.1875 22.21875 C 46.582031 22.316406 46.90625 22.210938 47.167969 21.902344 C 47.335938 21.691406 47.375 21.457031 47.277344 21.207031 C 47.460938 21.027344 47.613281 20.828125 47.738281 20.605469 C 47.980469 20.554688 48.175781 20.429688 48.320312 20.226562 C 48.445312 20.019531 48.550781 19.804688 48.636719 19.578125 C 48.75 19.535156 48.84375 19.472656 48.921875 19.386719 C 49.058594 19.257812 49.179688 19.117188 49.285156 18.960938 C 49.515625 18.964844 49.714844 18.890625 49.886719 18.738281 L 50.15625 18.457031 L 50.203125 18.488281 C 50.367188 18.550781 50.535156 18.5625 50.703125 18.523438 C 50.875 18.484375 51.019531 18.398438 51.136719 18.265625 L 51.34375 18.027344 L 51.46875 18.078125 C 51.640625 18.128906 51.8125 18.128906 51.980469 18.074219 C 52.152344 18.019531 52.292969 17.917969 52.402344 17.777344 L 52.527344 17.585938 L 52.71875 17.664062 C 52.894531 17.707031 53.066406 17.695312 53.234375 17.628906 C 53.402344 17.5625 53.535156 17.453125 53.632812 17.300781 C 53.703125 17.195312 53.769531 17.085938 53.824219 16.96875 L 53.839844 16.96875 C 54.191406 17.242188 54.566406 17.277344 54.960938 17.082031 C 55.230469 17.308594 55.539062 17.378906 55.878906 17.285156 L 56.039062 17.222656 C 56.296875 17.292969 56.546875 17.261719 56.78125 17.128906 C 56.832031 17.101562 56.878906 17.070312 56.921875 17.035156 C 57.003906 17.136719 57.101562 17.226562 57.207031 17.300781 C 57.367188 17.390625 57.539062 17.425781 57.722656 17.40625 C 57.90625 17.382812 58.066406 17.3125 58.203125 17.191406 C 58.378906 17.042969 58.535156 16.878906 58.679688 16.703125 L 58.695312 16.703125 C 58.945312 16.890625 59.058594 17.300781 59.308594 17.382812 L 59.546875 17.414062 L 59.722656 17.445312 L 60.195312 17.445312 C 60.191406 17.851562 60.363281 18.15625 60.71875 18.359375 C 60.878906 18.449219 61.050781 18.484375 61.234375 18.460938 C 61.417969 18.4375 61.578125 18.359375 61.714844 18.234375 L 61.808594 18.15625 L 61.980469 18.25 C 62.105469 18.394531 62.210938 18.554688 62.296875 18.722656 C 62.316406 19.046875 62.453125 19.304688 62.710938 19.5 C 62.980469 19.710938 63.273438 19.738281 63.578125 19.578125 C 63.644531 19.875 63.804688 20.101562 64.070312 20.257812 C 64.082031 20.5 64.164062 20.71875 64.320312 20.90625 C 64.457031 21.039062 64.621094 21.125 64.8125 21.15625 C 64.8125 21.445312 64.910156 21.699219 65.097656 21.917969 C 65.335938 22.15625 65.621094 22.234375 65.949219 22.152344 C 66.101562 22.210938 66.230469 22.292969 66.34375 22.40625 L 66.363281 22.40625 C 66.242188 22.515625 66.210938 22.648438 66.265625 22.800781 C 66.378906 23.054688 66.820312 23.148438 67.074219 23.355469 C 66.773438 23.679688 66.699219 24.046875 66.851562 24.460938 C 66.921875 24.65625 67.046875 24.796875 67.230469 24.886719 C 67.113281 25.03125 67.097656 25.183594 67.183594 25.347656 C 67.339844 25.582031 67.847656 25.566406 68.117188 25.773438 L 68.226562 25.851562 C 68.003906 26.007812 67.707031 26.105469 67.640625 26.308594 C 67.515625 26.683594 67.574219 27.027344 67.816406 27.335938 C 67.769531 27.53125 67.769531 27.726562 67.816406 27.921875 C 67.921875 28.269531 68.152344 28.476562 68.511719 28.539062 C 68.609375 28.621094 68.691406 28.71875 68.765625 28.824219 C 68.671875 28.847656 68.597656 28.898438 68.542969 28.980469 C 68.429688 29.164062 68.371094 29.367188 68.378906 29.585938 C 68.382812 29.804688 68.449219 30.003906 68.574219 30.183594 C 68.691406 30.328125 68.839844 30.433594 69.019531 30.496094 C 68.988281 30.78125 69.054688 31.039062 69.222656 31.273438 C 69.445312 31.574219 69.742188 31.683594 70.109375 31.605469 C 70.238281 31.679688 70.347656 31.773438 70.441406 31.886719 C 70.457031 31.886719 70.457031 31.90625 70.472656 31.921875 C 70.488281 31.9375 70.21875 32.203125 70.296875 32.410156 C 70.378906 32.617188 70.789062 32.742188 71.042969 32.929688 C 70.976562 33.015625 70.957031 33.113281 70.976562 33.214844 C 71.027344 33.484375 71.5 33.675781 71.691406 33.957031 C 71.734375 34.042969 71.773438 34.132812 71.800781 34.226562 C 71.609375 34.289062 71.421875 34.339844 71.339844 34.464844 C 71.234375 34.652344 71.183594 34.855469 71.191406 35.070312 C 71.199219 35.289062 71.265625 35.488281 71.390625 35.664062 C 71.496094 35.816406 71.636719 35.917969 71.816406 35.964844 C 71.9375 36.0625 72.039062 36.179688 72.117188 36.3125 C 72.210938 36.503906 72.210938 36.773438 72.257812 36.976562 C 72.304688 37.183594 71.832031 37.402344 71.832031 37.625 C 71.820312 37.820312 71.867188 38 71.972656 38.164062 C 71.847656 38.351562 71.738281 38.558594 71.894531 38.746094 C 72.015625 38.863281 72.15625 38.933594 72.320312 38.953125 C 72.320312 39.253906 71.785156 39.570312 72.039062 39.933594 C 72.289062 40.296875 72.433594 40.136719 72.6875 40.199219 C 72.667969 40.289062 72.640625 40.371094 72.605469 40.453125 C 72.570312 40.515625 72.527344 40.574219 72.480469 40.628906 C 72.367188 40.664062 72.296875 40.738281 72.257812 40.847656 C 72.136719 40.933594 72.058594 41.050781 72.023438 41.195312 C 72.003906 41.269531 72.003906 41.34375 72.023438 41.417969 C 71.832031 41.589844 71.59375 41.75 71.691406 42.035156 C 71.785156 42.320312 72.179688 42.382812 72.433594 42.570312 C 72.40625 42.675781 72.371094 42.777344 72.320312 42.871094 C 72.148438 43.15625 71.738281 43.332031 71.691406 43.597656 C 71.636719 43.902344 71.703125 44.175781 71.894531 44.421875 C 71.738281 44.5625 71.5625 44.703125 71.546875 44.863281 C 71.507812 45.125 71.558594 45.367188 71.707031 45.589844 C 71.53125 45.765625 71.308594 45.921875 71.292969 46.113281 C 71.277344 46.179688 71.277344 46.25 71.292969 46.316406 C 71.089844 46.363281 70.898438 46.394531 70.804688 46.523438 C 70.667969 46.699219 70.597656 46.898438 70.597656 47.121094 C 70.378906 47.25 70.125 47.359375 70.171875 47.644531 C 70.175781 47.714844 70.203125 47.78125 70.25 47.835938 C 69.980469 47.898438 69.777344 48.054688 69.886719 48.449219 C 69.996094 48.84375 69.351562 49.128906 69.632812 49.523438 C 69.679688 49.582031 69.738281 49.625 69.808594 49.652344 C 69.617188 49.683594 69.445312 49.699219 69.332031 49.808594 C 69.246094 49.910156 69.179688 50.019531 69.128906 50.140625 C 68.945312 50.152344 68.835938 50.246094 68.796875 50.425781 C 68.75 50.582031 68.84375 50.804688 68.953125 51.011719 C 68.859375 50.972656 68.757812 50.953125 68.652344 50.949219 C 68.210938 50.914062 67.625 51.042969 67.863281 51.625 C 67.882812 51.707031 67.875 51.785156 67.847656 51.863281 C 67.40625 51.832031 66.820312 51.941406 67.027344 52.542969 C 67.039062 52.558594 67.042969 52.574219 67.042969 52.589844 C 66.757812 52.558594 66.503906 52.667969 66.503906 53.082031 C 66.503906 53.492188 65.917969 53.554688 65.917969 53.917969 C 65.648438 54.011719 65.300781 54.042969 65.269531 54.390625 C 65.28125 54.507812 65.316406 54.613281 65.382812 54.707031 L 65.175781 54.707031 C 64.75 54.738281 64.179688 54.898438 64.449219 55.484375 C 64.464844 55.5 64.464844 55.53125 64.480469 55.546875 C 64.496094 55.5625 64.101562 55.546875 64.003906 55.75 C 63.960938 55.859375 63.949219 55.96875 63.972656 56.082031 C 63.609375 55.894531 63.121094 55.816406 63.058594 56.398438 C 63.042969 56.621094 62.742188 56.714844 62.550781 56.890625 C 62.363281 57.0625 61.886719 56.808594 61.746094 57.140625 C 61.601562 57.472656 61.792969 57.601562 61.886719 57.871094 C 61.789062 57.933594 61.683594 57.980469 61.570312 58.011719 C 61.238281 58.105469 60.8125 57.949219 60.589844 58.105469 C 60.367188 58.269531 60.230469 58.484375 60.179688 58.753906 C 59.988281 58.800781 59.785156 58.800781 59.609375 58.847656 C 59.515625 58.796875 59.417969 58.757812 59.308594 58.738281 C 58.882812 58.660156 58.28125 58.707031 58.425781 59.324219 L 58.425781 59.355469 C 58.203125 59.292969 57.980469 59.242188 57.824219 59.449219 C 57.738281 59.597656 57.703125 59.753906 57.730469 59.921875 C 57.429688 59.988281 56.984375 59.574219 56.703125 59.921875 L 56.652344 60.019531 C 56.507812 60.035156 56.386719 60.097656 56.289062 60.207031 C 56.054688 60.460938 55.421875 60.066406 55.214844 60.507812 C 55.1875 60.558594 55.175781 60.609375 55.183594 60.667969 C 54.898438 60.617188 54.550781 60.398438 54.3125 60.667969 C 54.25 60.78125 54.226562 60.902344 54.234375 61.03125 C 54.046875 60.886719 53.839844 60.746094 53.601562 60.886719 C 53.367188 61.03125 53.367188 61.378906 53.253906 61.660156 C 53.179688 61.539062 53.085938 61.433594 52.96875 61.347656 C 52.605469 61.109375 52.039062 60.886719 51.910156 61.535156 C 51.707031 61.410156 51.46875 61.394531 51.261719 61.710938 C 51.058594 62.027344 50.378906 61.742188 50.25 62.214844 C 50.242188 62.289062 50.246094 62.363281 50.265625 62.4375 C 50.164062 62.550781 50.050781 62.644531 49.917969 62.722656 C 49.855469 62.753906 49.785156 62.773438 49.714844 62.785156 L 49.585938 62.671875 C 49.269531 62.4375 49.082031 62.230469 48.78125 62.167969 C 48.480469 62.105469 48.101562 62.105469 47.941406 62.308594 C 47.691406 62.214844 47.421875 62.058594 47.199219 62.292969 C 47.109375 62.421875 47.066406 62.5625 47.074219 62.722656 C 46.960938 62.5625 46.820312 62.433594 46.644531 62.339844 C 46.394531 62.214844 46.03125 62.121094 45.824219 62.261719 C 45.632812 62.167969 45.445312 62.199219 45.238281 62.453125 C 45.035156 62.703125 44.355469 62.390625 44.195312 62.863281 L 44.179688 62.863281 C 43.988281 62.757812 43.78125 62.695312 43.5625 62.671875 C 43.511719 62.636719 43.453125 62.628906 43.390625 62.640625 C 43.328125 62.644531 43.269531 62.660156 43.214844 62.6875 C 42.914062 62.753906 42.628906 62.894531 42.644531 63.195312 L 42.503906 63.273438 L 42.265625 63.335938 L 41.949219 63.164062 C 41.585938 62.988281 41.367188 62.832031 41.050781 62.832031 C 40.921875 62.816406 40.792969 62.828125 40.671875 62.863281 C 40.480469 62.738281 40.273438 62.609375 40.070312 62.769531 C 39.863281 62.925781 39.847656 63.226562 39.753906 63.511719 L 39.675781 63.449219 C 39.359375 63.195312 39.167969 63.003906 38.851562 62.941406 C 38.628906 62.882812 38.40625 62.886719 38.1875 62.957031 C 37.824219 62.703125 37.269531 62.515625 37.144531 63.132812 C 37.144531 63.164062 37.144531 63.179688 37.128906 63.195312 C 37.019531 63.042969 36.882812 62.925781 36.71875 62.847656 C 36.550781 62.765625 36.378906 62.710938 36.195312 62.6875 C 36.023438 62.5625 35.816406 62.53125 35.5625 62.753906 C 35.308594 62.972656 35.121094 62.800781 34.867188 62.785156 C 34.761719 62.605469 34.609375 62.542969 34.410156 62.59375 C 34.273438 62.648438 34.167969 62.738281 34.09375 62.863281 C 34.007812 62.84375 33.921875 62.851562 33.839844 62.878906 C 33.492188 62.941406 33.207031 62.246094 32.78125 62.484375 C 32.738281 62.5 32.699219 62.527344 32.671875 62.5625 C 32.558594 62.550781 32.453125 62.566406 32.355469 62.609375 C 32.023438 62.753906 31.59375 62.121094 31.230469 62.453125 C 31.203125 62.464844 31.179688 62.488281 31.167969 62.515625 L 31.136719 62.515625 C 30.789062 62.640625 30.394531 62.007812 30.015625 62.324219 C 29.886719 62.421875 29.855469 62.625 29.824219 62.832031 L 29.460938 62.65625 C 29.25 62.5625 29.035156 62.488281 28.8125 62.4375 C 28.703125 62.246094 28.558594 62.074219 28.320312 62.105469 C 28.085938 62.136719 27.832031 62.640625 27.546875 62.832031 L 27.34375 62.625 C 27.042969 62.375 26.867188 62.152344 26.566406 62.058594 C 26.347656 61.984375 26.128906 61.972656 25.902344 62.027344 C 25.683594 61.882812 25.445312 61.695312 25.191406 61.820312 C 25.019531 61.566406 24.765625 61.410156 24.417969 61.710938 C 24.332031 61.773438 24.238281 61.796875 24.132812 61.789062 C 24.007812 61.488281 23.753906 61.28125 23.375 61.550781 C 22.992188 61.820312 22.882812 61.503906 22.613281 61.488281 C 22.519531 61.335938 22.382812 61.269531 22.203125 61.28125 C 22.058594 61.332031 21.941406 61.421875 21.855469 61.550781 C 21.769531 61.515625 21.679688 61.503906 21.585938 61.519531 C 21.222656 61.550781 21.019531 60.839844 20.558594 61.046875 C 20.4375 61.121094 20.351562 61.226562 20.304688 61.363281 C 20.007812 61.25 19.832031 60.699219 19.421875 60.855469 C 19.324219 60.890625 19.25 60.957031 19.199219 61.046875 C 19.058594 60.699219 18.789062 60.398438 18.378906 60.730469 L 18.296875 60.777344 C 18.21875 60.492188 18.046875 60.269531 17.648438 60.429688 C 17.253906 60.585938 16.921875 59.9375 16.542969 60.238281 L 16.449219 60.367188 C 16.242188 60.113281 16.117188 59.921875 15.863281 59.796875 C 15.683594 59.707031 15.496094 59.667969 15.292969 59.671875 C 15.234375 59.574219 15.160156 59.492188 15.074219 59.417969 C 14.867188 59.242188 14.582031 59.085938 14.363281 59.132812 C 14.15625 58.785156 13.808594 58.484375 13.460938 58.863281 L 13.351562 58.863281 C 13.003906 58.894531 12.8125 58.183594 12.371094 58.375 C 12.226562 58.4375 12.132812 58.613281 12.039062 58.816406 C 11.941406 59.023438 12.007812 58.785156 12.007812 58.769531 C 11.800781 58.4375 11.707031 58.183594 11.4375 58.011719 C 11.167969 57.835938 10.929688 57.742188 10.710938 57.820312 C 10.539062 57.636719 10.34375 57.484375 10.125 57.363281 L 10.09375 57.300781 C 9.902344 56.953125 9.824219 56.699219 9.570312 56.527344 C 9.429688 56.410156 9.273438 56.332031 9.097656 56.289062 L 9.003906 56.097656 C 9.050781 55.878906 8.96875 55.671875 8.621094 55.59375 C 8.273438 55.515625 8.304688 54.789062 7.832031 54.835938 C 7.664062 54.886719 7.527344 54.980469 7.421875 55.121094 L 7.328125 54.867188 C 7.167969 54.535156 7.089844 54.296875 6.882812 54.109375 C 6.898438 54.03125 6.902344 53.949219 6.898438 53.871094 C 6.867188 53.476562 6.695312 52.984375 6.234375 53.144531 C 6 52.878906 5.734375 52.660156 5.429688 52.480469 L 5.429688 52.226562 C 5.445312 51.847656 5.492188 51.578125 5.351562 51.3125 C 5.207031 51.042969 4.96875 50.695312 4.6875 50.742188 C 4.628906 50.625 4.578125 50.503906 4.542969 50.378906 L 4.589844 50.285156 C 4.78125 49.90625 4.890625 49.335938 4.273438 49.304688 C 3.992188 49.289062 3.863281 48.828125 3.578125 48.71875 C 3.578125 48.496094 3.542969 48.28125 3.46875 48.070312 C 3.421875 47.820312 3.347656 47.578125 3.246094 47.34375 C 3.214844 47.277344 3.191406 47.207031 3.167969 47.140625 C 3.332031 47.015625 3.457031 46.863281 3.546875 46.679688 C 3.722656 46.285156 3.800781 45.699219 3.183594 45.714844 C 3.105469 45.707031 3.035156 45.675781 2.976562 45.621094 C 2.949219 45.402344 2.902344 45.1875 2.835938 44.972656 L 2.757812 44.738281 C 2.890625 44.660156 2.996094 44.554688 3.074219 44.421875 C 3.292969 44.058594 3.453125 43.488281 2.835938 43.410156 C 2.695312 43.394531 2.597656 43.265625 2.503906 43.125 C 2.472656 42.925781 2.433594 42.730469 2.378906 42.539062 C 2.363281 42.523438 2.363281 42.507812 2.363281 42.476562 C 2.613281 42.320312 2.820312 42.207031 2.960938 41.988281 C 3.105469 41.765625 3.308594 41.179688 2.898438 41.023438 C 3.007812 40.941406 3.097656 40.839844 3.167969 40.722656 C 3.277344 40.515625 3.390625 40.234375 3.328125 40.027344 C 3.398438 39.765625 3.367188 39.519531 3.230469 39.285156 C 3.148438 39.128906 3.046875 38.988281 2.929688 38.859375 C 3.027344 38.660156 3.109375 38.460938 3.183594 38.257812 L 3.214844 38.179688 L 3.484375 37.988281 C 3.617188 37.84375 3.695312 37.675781 3.722656 37.480469 C 3.75 37.289062 3.714844 37.105469 3.625 36.929688 C 3.558594 36.785156 3.480469 36.648438 3.390625 36.519531 L 3.609375 36.328125 L 3.910156 36.011719 C 4.152344 35.96875 4.359375 35.859375 4.527344 35.679688 C 4.65625 35.53125 4.726562 35.363281 4.746094 35.167969 C 4.761719 34.972656 4.722656 34.792969 4.621094 34.621094 C 4.585938 34.535156 4.539062 34.457031 4.480469 34.386719 L 4.621094 34.289062 C 4.9375 34.085938 5.175781 33.972656 5.335938 33.707031 C 5.363281 33.667969 5.386719 33.625 5.398438 33.578125 C 5.488281 33.445312 5.546875 33.296875 5.570312 33.136719 C 5.585938 32.941406 5.585938 32.746094 5.570312 32.550781 L 5.667969 32.457031 C 5.816406 32.242188 5.9375 32.007812 6.03125 31.761719 C 6.269531 31.765625 6.492188 31.699219 6.695312 31.574219 C 6.851562 31.460938 6.960938 31.3125 7.019531 31.128906 C 7.078125 30.941406 7.074219 30.757812 7.011719 30.578125 C 7.007812 30.527344 6.996094 30.480469 6.976562 30.433594 L 7.359375 30.230469 C 7.675781 30.023438 7.910156 29.929688 8.085938 29.660156 L 8.179688 29.488281 C 8.359375 29.441406 8.535156 29.378906 8.703125 29.296875 C 8.890625 29.265625 9.058594 29.1875 9.195312 29.054688 C 9.335938 28.917969 9.421875 28.757812 9.460938 28.570312 C 9.460938 28.539062 9.476562 28.492188 9.476562 28.445312 L 9.507812 28.445312 C 9.695312 28.433594 9.863281 28.367188 10.007812 28.246094 C 10.152344 28.128906 10.25 27.976562 10.296875 27.796875 C 10.371094 27.5625 10.414062 27.328125 10.425781 27.085938 C 10.59375 27.035156 10.757812 26.972656 10.914062 26.894531 C 11.246094 26.722656 11.5 26.640625 11.675781 26.40625 C 11.847656 26.167969 12.070312 25.710938 11.785156 25.503906 C 11.753906 25.410156 11.738281 25.296875 11.707031 25.203125 C 11.894531 24.941406 12.046875 24.664062 12.164062 24.367188 C 12.179688 24.367188 12.179688 24.351562 12.179688 24.335938 C 12.371094 24.195312 12.492188 24.011719 12.542969 23.78125 C 12.609375 23.425781 12.621094 23.066406 12.574219 22.707031 C 12.710938 22.570312 12.832031 22.421875 12.9375 22.265625 L 13.128906 22.011719 C 13.269531 21.953125 13.394531 21.875 13.507812 21.773438 C 13.730469 21.566406 13.8125 21.316406 13.761719 21.015625 C 13.878906 20.984375 13.984375 20.933594 14.078125 20.859375 C 14.292969 20.695312 14.398438 20.480469 14.394531 20.210938 C 14.726562 20.113281 14.976562 19.847656 15.027344 19.371094 L 15.027344 19.246094 C 15.289062 19.265625 15.527344 19.199219 15.738281 19.039062 C 15.996094 18.839844 16.109375 18.578125 16.070312 18.25 C 16.386719 18.242188 16.644531 18.113281 16.84375 17.871094 C 17.0625 17.59375 17.105469 17.296875 16.96875 16.96875 L 17.191406 16.84375 L 17.632812 16.589844 C 17.726562 16.71875 17.847656 16.800781 18 16.84375 C 18.398438 16.875 18.71875 16.734375 18.960938 16.417969 C 19.332031 16.484375 19.652344 16.390625 19.925781 16.132812 L 20.023438 16.007812 C 20.238281 16.035156 20.441406 16.003906 20.636719 15.910156 C 20.875 15.796875 21.023438 15.613281 21.082031 15.359375 C 21.507812 15.488281 21.882812 15.398438 22.203125 15.089844 L 22.265625 15.011719 C 22.347656 15.121094 22.453125 15.195312 22.582031 15.230469 C 22.820312 15.265625 23.039062 15.222656 23.246094 15.105469 C 23.285156 15.175781 23.335938 15.226562 23.40625 15.261719 C 23.742188 15.433594 24.074219 15.421875 24.402344 15.230469 C 24.570312 15.359375 24.757812 15.429688 24.964844 15.441406 C 25.175781 15.457031 25.371094 15.414062 25.554688 15.3125 C 25.640625 15.265625 25.714844 15.207031 25.777344 15.136719 L 25.980469 15.074219 C 26.039062 15.195312 26.117188 15.300781 26.21875 15.390625 C 26.371094 15.507812 26.546875 15.574219 26.738281 15.585938 C 26.933594 15.597656 27.113281 15.554688 27.277344 15.453125 L 27.5 15.296875 C 27.65625 15.304688 27.800781 15.339844 27.941406 15.40625 C 28.046875 15.472656 28.144531 15.550781 28.226562 15.644531 C 28.238281 16.078125 28.4375 16.394531 28.828125 16.589844 C 29.023438 16.6875 29.222656 16.703125 29.429688 16.636719 C 29.46875 16.710938 29.523438 16.773438 29.585938 16.828125 C 29.855469 17.070312 30.15625 17.125 30.488281 16.984375 C 30.566406 17.183594 30.6875 17.34375 30.851562 17.476562 C 31.113281 17.652344 31.394531 17.683594 31.691406 17.570312 C 31.640625 17.746094 31.59375 17.902344 31.65625 18.027344 C 31.746094 18.230469 31.878906 18.390625 32.066406 18.507812 C 32.25 18.625 32.449219 18.683594 32.671875 18.675781 L 32.734375 18.675781 C 32.71875 18.863281 32.753906 19.035156 32.84375 19.199219 C 33.011719 19.382812 33.214844 19.492188 33.460938 19.53125 C 33.429688 19.675781 33.441406 19.816406 33.492188 19.957031 C 33.605469 20.144531 33.761719 20.285156 33.960938 20.375 C 34.160156 20.46875 34.367188 20.496094 34.582031 20.460938 L 34.613281 20.460938 C 34.757812 20.714844 34.820312 21.046875 35.011719 21.15625 L 35.167969 21.222656 L 35.214844 21.253906 C 35.457031 21.363281 35.6875 21.347656 35.910156 21.207031 L 36.070312 21.125 C 36.070312 21.140625 36.085938 21.175781 36.085938 21.191406 C 36.171875 21.378906 36.300781 21.527344 36.476562 21.636719 C 36.652344 21.746094 36.84375 21.796875 37.050781 21.789062 C 37.136719 21.792969 37.222656 21.777344 37.300781 21.742188 C 37.453125 21.851562 37.621094 21.90625 37.808594 21.90625 C 37.996094 21.90625 38.164062 21.851562 38.3125 21.742188 C 38.503906 21.621094 38.679688 21.480469 38.835938 21.316406 C 39.027344 21.554688 39.074219 21.964844 39.292969 22.074219 C 39.445312 22.148438 39.601562 22.1875 39.769531 22.183594 C 39.894531 22.324219 40.046875 22.417969 40.226562 22.46875 C 40.503906 22.554688 40.757812 22.507812 40.984375 22.328125 C 41.125 22.367188 41.269531 22.382812 41.414062 22.375 C 41.617188 22.363281 41.816406 22.332031 42.015625 22.28125 Z M 26.976562 25.503906 C 26.988281 25.375 26.980469 25.25 26.945312 25.125 C 26.839844 24.777344 26.683594 24.457031 26.472656 24.160156 C 26.25 23.859375 26.125 23.640625 25.871094 23.496094 L 25.667969 23.402344 C 25.621094 23.191406 25.527344 23.007812 25.382812 22.847656 C 25.097656 22.546875 24.621094 22.25 24.386719 22.816406 C 24.347656 22.882812 24.296875 22.929688 24.226562 22.960938 C 23.957031 22.863281 23.65625 22.515625 23.359375 22.753906 C 23.058594 22.992188 23.183594 23.085938 23.136719 23.308594 C 23.089844 23.527344 22.835938 23.703125 22.628906 23.828125 C 22.585938 23.859375 22.539062 23.878906 22.488281 23.890625 C 22.3125 23.640625 22.03125 23.433594 21.761719 23.765625 C 21.492188 24.097656 21.066406 23.734375 20.9375 24.097656 C 20.8125 24.460938 21.035156 24.507812 21.113281 24.746094 C 21.191406 24.984375 20.875 25.171875 20.703125 25.296875 C 20.527344 25.425781 20.132812 25.503906 20.023438 25.710938 C 19.933594 25.871094 19.898438 26.039062 19.914062 26.222656 C 19.933594 26.402344 20 26.566406 20.117188 26.703125 C 20.167969 26.765625 20.226562 26.820312 20.289062 26.863281 C 20.179688 27.085938 19.941406 27.273438 19.957031 27.480469 C 19.972656 27.785156 20.109375 28.023438 20.371094 28.191406 L 20.339844 28.253906 C 20.292969 28.441406 20.300781 28.625 20.367188 28.808594 C 20.433594 28.988281 20.546875 29.136719 20.703125 29.25 C 20.84375 29.347656 21 29.394531 21.171875 29.390625 C 21.34375 29.386719 21.496094 29.335938 21.632812 29.234375 C 21.722656 29.179688 21.800781 29.117188 21.871094 29.042969 C 21.886719 29.296875 21.808594 29.597656 21.933594 29.753906 C 22.054688 29.914062 22.207031 30.027344 22.394531 30.09375 C 22.582031 30.160156 22.769531 30.167969 22.960938 30.117188 C 23.128906 30.070312 23.261719 29.980469 23.371094 29.847656 C 23.476562 29.714844 23.539062 29.5625 23.546875 29.390625 C 23.707031 29.566406 23.847656 29.769531 24.023438 29.800781 C 24.222656 29.835938 24.414062 29.808594 24.601562 29.71875 C 24.785156 29.632812 24.929688 29.503906 25.035156 29.328125 C 25.085938 29.257812 25.117188 29.179688 25.128906 29.089844 C 25.300781 29 25.464844 28.894531 25.617188 28.773438 L 25.746094 28.664062 C 25.917969 28.699219 26.085938 28.683594 26.25 28.617188 C 26.566406 28.507812 26.789062 28.238281 26.804688 27.78125 C 26.804688 27.667969 26.789062 27.527344 26.773438 27.367188 C 27.023438 27.191406 27.148438 26.949219 27.152344 26.640625 C 27.15625 26.28125 27.109375 25.929688 27.011719 25.582031 C 26.992188 25.566406 26.992188 25.535156 26.976562 25.503906 Z M 21.980469 26.925781 C 22.070312 26.992188 22.164062 27.042969 22.265625 27.085938 L 22.21875 27.085938 C 22.121094 27.105469 22.03125 27.082031 21.949219 27.019531 C 21.953125 26.988281 21.964844 26.957031 21.980469 26.925781 Z M 23.390625 27.335938 C 23.242188 27.332031 23.09375 27.34375 22.945312 27.367188 C 22.867188 27.304688 22.777344 27.261719 22.679688 27.242188 C 22.65625 27.199219 22.625 27.160156 22.582031 27.132812 L 22.679688 27.132812 C 23.054688 27.09375 23.417969 26.996094 23.769531 26.847656 L 23.957031 26.769531 C 24.070312 26.925781 24.164062 27.085938 24.320312 27.132812 C 24.4375 27.167969 24.550781 27.175781 24.671875 27.164062 C 24.601562 27.28125 24.519531 27.386719 24.417969 27.480469 C 24.316406 27.558594 24.207031 27.617188 24.085938 27.652344 C 23.878906 27.496094 23.644531 27.390625 23.390625 27.335938 Z M 53.191406 28.679688 C 53.285156 28.839844 53.554688 28.886719 53.777344 28.964844 C 53.839844 29.152344 53.9375 29.316406 54.078125 29.453125 C 53.917969 29.597656 53.730469 29.722656 53.699219 29.898438 C 53.667969 30.089844 53.691406 30.269531 53.769531 30.445312 C 53.851562 30.621094 53.976562 30.761719 54.140625 30.859375 C 54.289062 30.964844 54.453125 31 54.628906 30.972656 C 54.800781 31.1875 55.019531 31.296875 55.292969 31.304688 C 55.496094 31.316406 55.695312 31.304688 55.894531 31.273438 C 55.957031 31.382812 56.035156 31.476562 56.132812 31.558594 C 56.277344 31.65625 56.4375 31.707031 56.613281 31.707031 C 56.789062 31.707031 56.953125 31.65625 57.097656 31.558594 C 57.25 31.457031 57.394531 31.339844 57.523438 31.210938 C 57.613281 31.265625 57.707031 31.304688 57.808594 31.335938 C 57.984375 31.371094 58.152344 31.355469 58.316406 31.28125 C 58.480469 31.210938 58.605469 31.09375 58.695312 30.941406 C 58.863281 30.6875 58.992188 30.414062 59.074219 30.117188 C 59.191406 30.011719 59.289062 29.886719 59.359375 29.738281 C 59.472656 29.410156 59.539062 29.074219 59.5625 28.726562 C 59.5625 28.585938 59.578125 28.445312 59.578125 28.332031 L 59.722656 28.175781 C 59.957031 27.890625 60.148438 27.730469 60.210938 27.449219 C 60.273438 27.164062 60.320312 26.5 59.722656 26.59375 C 59.671875 26.605469 59.625 26.601562 59.578125 26.578125 C 59.722656 26.199219 59.753906 25.710938 59.183594 25.710938 C 58.851562 25.710938 58.710938 25.015625 58.265625 25.171875 C 58.207031 25.183594 58.160156 25.21875 58.125 25.265625 C 58.082031 25.042969 57.988281 24.84375 57.839844 24.667969 C 57.554688 24.367188 57.066406 24.035156 56.8125 24.617188 C 56.789062 24.667969 56.75 24.703125 56.703125 24.730469 C 56.464844 24.445312 56.117188 24.253906 55.832031 24.699219 C 55.546875 25.140625 54.960938 24.730469 54.835938 25.1875 C 54.824219 25.328125 54.855469 25.460938 54.929688 25.582031 C 54.859375 25.558594 54.785156 25.542969 54.710938 25.535156 C 54.28125 25.488281 53.699219 25.566406 53.871094 26.167969 C 53.980469 26.515625 53.332031 26.863281 53.617188 27.257812 L 53.664062 27.304688 C 53.507812 27.367188 53.429688 27.511719 53.476562 27.78125 C 53.523438 28.046875 52.96875 28.332031 53.191406 28.679688 Z M 56.8125 29.074219 L 56.84375 29.042969 L 56.8125 29.042969 Z M 56.8125 29.074219 " fill-opacity="1" fill-rule="nonzero"/></g><path fill="#f18f8f" d="M 24.8125 35.585938 C 24.71875 37.765625 22.488281 39.457031 19.832031 39.347656 C 17.175781 39.238281 15.089844 37.371094 15.183594 35.175781 C 15.277344 32.980469 17.507812 31.289062 20.164062 31.398438 C 22.820312 31.507812 24.90625 33.390625 24.8125 35.585938 Z M 63.246094 37.5625 C 63.214844 35.367188 61.050781 33.59375 58.394531 33.625 C 55.738281 33.660156 53.585938 35.445312 53.601562 37.640625 C 53.617188 39.835938 55.800781 41.609375 58.457031 41.574219 C 61.113281 41.542969 63.261719 39.757812 63.246094 37.5625 Z M 63.246094 37.5625 " fill-opacity="1" fill-rule="nonzero"/><path fill="#3f2f2f" d="M 27.011719 25.582031 C 27.109375 25.929688 27.15625 26.28125 27.152344 26.640625 C 27.148438 26.949219 27.023438 27.191406 26.773438 27.367188 C 26.789062 27.527344 26.804688 27.667969 26.804688 27.78125 C 26.789062 28.238281 26.566406 28.507812 26.25 28.617188 C 26.085938 28.683594 25.917969 28.699219 25.746094 28.664062 L 25.617188 28.773438 C 25.464844 28.894531 25.300781 29 25.128906 29.089844 C 25.117188 29.179688 25.085938 29.257812 25.035156 29.328125 C 24.929688 29.503906 24.785156 29.632812 24.601562 29.71875 C 24.414062 29.808594 24.222656 29.835938 24.023438 29.800781 C 23.847656 29.769531 23.707031 29.566406 23.546875 29.390625 C 23.539062 29.5625 23.476562 29.714844 23.371094 29.847656 C 23.261719 29.980469 23.128906 30.070312 22.960938 30.117188 C 22.769531 30.167969 22.582031 30.160156 22.394531 30.09375 C 22.207031 30.027344 22.054688 29.914062 21.933594 29.753906 C 21.808594 29.597656 21.886719 29.296875 21.871094 29.042969 C 21.800781 29.117188 21.722656 29.179688 21.632812 29.234375 C 21.496094 29.335938 21.34375 29.386719 21.171875 29.390625 C 21 29.394531 20.84375 29.347656 20.703125 29.25 C 20.546875 29.136719 20.433594 28.988281 20.367188 28.808594 C 20.300781 28.625 20.292969 28.441406 20.339844 28.253906 L 20.371094 28.191406 C 20.109375 28.023438 19.972656 27.785156 19.957031 27.480469 C 19.941406 27.273438 20.179688 27.085938 20.289062 26.863281 C 20.226562 26.820312 20.167969 26.765625 20.117188 26.703125 C 20 26.566406 19.933594 26.402344 19.914062 26.222656 C 19.898438 26.039062 19.933594 25.871094 20.023438 25.710938 C 20.132812 25.503906 20.496094 25.472656 20.703125 25.296875 C 20.90625 25.125 20.96875 24.886719 21.113281 24.746094 C 21.253906 24.601562 20.890625 24.269531 20.9375 24.097656 C 20.984375 23.921875 21.585938 23.988281 21.761719 23.765625 C 21.933594 23.542969 22.3125 23.640625 22.488281 23.890625 C 22.539062 23.878906 22.585938 23.859375 22.628906 23.828125 C 22.835938 23.703125 22.960938 23.402344 23.136719 23.308594 C 23.308594 23.210938 23.230469 22.847656 23.359375 22.753906 C 23.484375 22.660156 23.957031 22.863281 24.226562 22.960938 C 24.296875 22.929688 24.347656 22.882812 24.386719 22.816406 C 24.621094 22.25 25.097656 22.546875 25.382812 22.847656 C 25.527344 23.007812 25.621094 23.191406 25.667969 23.402344 L 25.871094 23.496094 C 26.125 23.640625 26.25 23.859375 26.472656 24.160156 C 26.683594 24.457031 26.839844 24.777344 26.945312 25.125 C 26.980469 25.25 26.988281 25.375 26.976562 25.503906 C 26.992188 25.535156 26.992188 25.566406 27.011719 25.582031 Z M 59.722656 26.59375 C 59.671875 26.605469 59.625 26.601562 59.578125 26.578125 C 59.722656 26.199219 59.753906 25.710938 59.183594 25.710938 C 58.851562 25.710938 58.710938 25.015625 58.265625 25.171875 C 58.207031 25.183594 58.160156 25.21875 58.125 25.265625 C 58.082031 25.042969 57.988281 24.84375 57.839844 24.667969 C 57.554688 24.367188 57.066406 24.035156 56.8125 24.617188 C 56.789062 24.667969 56.75 24.703125 56.703125 24.730469 C 56.464844 24.445312 56.117188 24.253906 55.832031 24.699219 C 55.546875 25.140625 54.960938 24.730469 54.835938 25.1875 C 54.824219 25.328125 54.855469 25.460938 54.929688 25.582031 C 54.859375 25.558594 54.785156 25.542969 54.710938 25.535156 C 54.28125 25.488281 53.699219 25.566406 53.871094 26.167969 C 53.980469 26.515625 53.332031 26.863281 53.617188 27.257812 L 53.664062 27.304688 C 53.507812 27.367188 53.429688 27.511719 53.476562 27.78125 C 53.523438 28.046875 52.96875 28.332031 53.191406 28.679688 C 53.414062 29.027344 53.554688 28.886719 53.777344 28.964844 C 53.839844 29.152344 53.9375 29.316406 54.078125 29.453125 C 53.917969 29.597656 53.730469 29.722656 53.699219 29.898438 C 53.667969 30.089844 53.691406 30.269531 53.769531 30.445312 C 53.851562 30.621094 53.976562 30.761719 54.140625 30.859375 C 54.289062 30.964844 54.453125 31 54.628906 30.972656 C 54.800781 31.1875 55.019531 31.296875 55.292969 31.304688 C 55.496094 31.316406 55.695312 31.304688 55.894531 31.273438 C 55.957031 31.382812 56.035156 31.476562 56.132812 31.558594 C 56.277344 31.65625 56.4375 31.707031 56.613281 31.707031 C 56.789062 31.707031 56.953125 31.65625 57.097656 31.558594 C 57.25 31.457031 57.394531 31.339844 57.523438 31.210938 C 57.613281 31.265625 57.707031 31.304688 57.808594 31.335938 C 57.984375 31.371094 58.152344 31.355469 58.316406 31.28125 C 58.480469 31.210938 58.605469 31.09375 58.695312 30.941406 C 58.863281 30.6875 58.992188 30.414062 59.074219 30.117188 C 59.191406 30.011719 59.289062 29.886719 59.359375 29.738281 C 59.472656 29.410156 59.539062 29.074219 59.5625 28.726562 C 59.5625 28.585938 59.578125 28.445312 59.578125 28.332031 L 59.722656 28.175781 C 59.957031 27.890625 60.148438 27.730469 60.210938 27.449219 C 60.273438 27.164062 60.320312 26.5 59.722656 26.59375 Z M 42.898438 31.160156 C 42.695312 31.097656 42.757812 30.640625 42.441406 30.625 C 42.125 30.609375 42.078125 30.910156 41.871094 30.988281 C 41.664062 31.066406 41.398438 31.003906 41.269531 31.113281 C 41.203125 31.183594 41.148438 31.261719 41.113281 31.351562 C 40.859375 31.382812 40.605469 31.507812 40.75 31.808594 C 40.75 31.824219 40.765625 31.824219 40.765625 31.839844 C 40.765625 31.855469 40.589844 31.9375 40.574219 32.109375 C 40.558594 32.285156 40.449219 32.285156 40.339844 32.363281 L 40.257812 32.332031 C 40.023438 32.300781 39.722656 32.316406 39.707031 32.566406 L 39.675781 32.566406 C 39.53125 32.726562 39.152344 32.503906 39.027344 32.773438 C 39.007812 32.835938 39.007812 32.898438 39.027344 32.964844 L 38.851562 33.089844 C 38.871094 33.003906 38.863281 32.917969 38.835938 32.835938 C 38.773438 32.582031 38.597656 32.285156 38.296875 32.519531 C 37.996094 32.757812 37.980469 32.503906 37.808594 32.519531 C 37.78125 32.429688 37.726562 32.355469 37.648438 32.300781 C 37.574219 32.230469 37.492188 32.179688 37.398438 32.140625 L 37.351562 31.984375 C 37.292969 31.851562 37.203125 31.753906 37.082031 31.683594 L 37.082031 31.589844 C 37.066406 31.351562 36.953125 31.019531 36.621094 31.191406 C 36.554688 31.222656 36.492188 31.214844 36.433594 31.175781 C 36.449219 31.027344 36.433594 30.878906 36.386719 30.734375 C 36.289062 30.53125 36.085938 30.292969 35.863281 30.546875 C 35.640625 30.796875 35.40625 30.496094 35.308594 30.734375 C 35.214844 30.972656 35.40625 31.097656 35.40625 31.289062 C 35.40625 31.476562 35.261719 31.652344 35.308594 31.792969 C 35.371094 31.945312 35.476562 32.050781 35.625 32.109375 C 35.597656 32.152344 35.582031 32.199219 35.578125 32.253906 C 35.589844 32.53125 35.71875 32.722656 35.972656 32.835938 C 36.0625 32.871094 36.152344 32.882812 36.242188 32.867188 C 36.1875 32.96875 36.171875 33.074219 36.195312 33.183594 C 36.320312 33.441406 36.523438 33.574219 36.8125 33.578125 L 36.953125 33.546875 C 36.957031 33.667969 36.988281 33.777344 37.050781 33.878906 C 37.191406 34 37.351562 34.058594 37.539062 34.054688 C 37.640625 34.207031 37.785156 34.304688 37.964844 34.339844 C 38.089844 34.371094 38.203125 34.355469 38.3125 34.289062 L 38.519531 34.339844 C 38.746094 34.335938 38.964844 34.300781 39.183594 34.242188 C 39.316406 34.375 39.472656 34.441406 39.65625 34.449219 C 39.925781 34.449219 40.105469 34.324219 40.195312 34.070312 C 40.230469 33.984375 40.257812 33.894531 40.273438 33.800781 C 40.355469 33.910156 40.433594 34.023438 40.527344 34.054688 C 40.828125 34.121094 41.070312 34.03125 41.253906 33.785156 L 41.253906 33.753906 C 41.414062 33.761719 41.554688 33.722656 41.683594 33.625 C 41.910156 33.46875 41.976562 33.257812 41.886719 32.996094 C 42.171875 32.980469 42.371094 32.84375 42.488281 32.582031 C 42.578125 32.402344 42.566406 32.230469 42.457031 32.0625 C 42.625 32.023438 42.773438 31.945312 42.898438 31.824219 C 43.105469 31.636719 43.277344 31.304688 42.898438 31.160156 Z M 42.898438 31.160156 " fill-opacity="1" fill-rule="nonzero"/></svg>